<?xml version="1.0" encoding="utf-8"?>
<!-- Generator: Adobe Illustrator 28.0.0, SVG Export Plug-In . SVG Version: 6.00 Build 0)  -->
<svg version="1.1" id="Layer_1" xmlns="http://www.w3.org/2000/svg" xmlns:xlink="http://www.w3.org/1999/xlink" x="0px" y="0px"
	 viewBox="0 0 1024 1024" style="enable-background:new 0 0 1024 1024;" xml:space="preserve">
<style type="text/css">
	.st0{fill:#FFFFFF;}
</style>
<circle cx="511.14" cy="511.71" r="506.28"/>
<g>
	<path class="st0" d="M241.47,282.35l3.06-0.44l7.65,1.09l15.74,5.47l2.62,3.06l5.47,2.62l8.96,8.96l5.68,7.65l3.06,4.59l2.84,3.93
		l1.97,7l3.06,7.43l0.22,3.06l1.31,8.74l0.66,11.59l-0.66,9.18l-0.66,7.87l-0.87,2.84l-1.09,2.84l-0.22,2.84l-0.44,3.06l-2.62,5.47
		l-2.84,7.43l-5.9,8.96l-1.97,3.28l-8.31,7.21l-5.25,5.9l-4.15,1.53l-8.74,3.93l-3.93,2.62h-2.84l-2.84-2.62l-2.4,1.09l2.19,2.4
		l-9.62,1.97l-6.56,0.66l-20.11-0.44l-3.94-0.87h-3.72l-4.37-2.19l-5.25-2.19l-5.47-1.75l-6.12-3.28l-6.12-4.81l-7.65-7.43
		l-4.81-6.78l-2.4-2.84l-1.97-5.68l-5.03-8.09v-2.19l-1.53-3.72l-0.87-3.5l-1.53-6.56l-0.87-23.39l1.31-9.18l2.4-12.24l0.44-1.75
		l5.68-11.37l4.59-7l10.49-11.81l5.03-3.5h0.66l2.19-1.75l5.9-3.93h4.15l3.06-2.19l9.84-3.06l15.08-2.19l14.87,0.44L241.47,282.35z
		 M157.96,339.63l-0.66,4.81v4.59l0.66,2.19l2.84-1.97l-0.44-3.72l-1.09-0.66v-6.12h-0.66L157.96,339.63z M157.53,354.05v1.97
		l1.75,3.28l0.66,2.4h1.31l4.15-3.06l-3.06-3.06h-1.97l-1.75-1.31h-0.22L157.53,354.05z M159.93,332.19l-0.66,1.53l0.66,0.44
		l1.53-0.87l-0.22-0.87l-0.66-0.22H159.93z M159.93,362.36l-0.66,1.53l0.66,0.44l0.66-0.66l-0.22-0.66L159.93,362.36z
		 M160.15,385.31l0.87,1.09l1.97-1.09l1.75,0.44v-1.53l-1.09-1.09h-2.84L160.15,385.31z M160.15,389.03l0.87,0.87l1.97-0.66v-2.19
		h-2.19L160.15,389.03z M161.02,338.75l0.44,1.09l2.19-1.97l-1.09-1.31h-0.87L161.02,338.75z M161.02,345.75l1.53,1.31h1.97v-1.97
		l-2.62-0.66h-0.44L161.02,345.75z M163.87,322.57l-1.97,1.97l0.66,1.53l2.62,0.22v1.75l-3.28,0.44l-0.22,0.87l-0.22,1.09h4.81
		l1.53,1.75h1.31l1.09-1.09v-1.97l-1.97-0.87l-0.66-4.59l-1.97-0.87L163.87,322.57z M163.87,376.57v2.19l1.09,0.87l2.4-1.75v-1.53
		l-1.09-1.09h-1.09L163.87,376.57z M168.68,334.82l-1.53,1.75h-2.19l-0.44,0.66l0.22,2.84l0.44,2.84l2.62,0.44l-0.22,0.87v0.87
		l-0.22,4.15l3.5,0.44l2.62-0.66l-0.66-1.31v-1.53l-1.53-1.75l0.44-0.22l2.84-1.53V344l2.19,2.19l1.75,2.62l3.5,1.09l0.87-0.66
		l0.87-3.06l-0.44-0.87l-1.31,1.97l-1.97-0.44l0.22-3.5l-0.87-0.66v-2.4l-1.09-1.53l-3.06,2.62l-2.19-1.75l-3.94-2.84l-0.22-1.09
		L168.68,334.82z M166.93,316.89l-1.31,1.53v1.53l1.09,0.44l1.97-1.09l-0.22-2.19l-0.66-0.22H166.93z M166.71,355.58l-1.09,2.84
		l2.84,3.06l1.31,0.66l2.19-2.4v-1.75l-3.94-3.94L166.71,355.58z M169.11,392.97l-0.66,1.31l1.31,1.75l0.87,1.75l2.19,0.44
		l1.09-1.53v-5.25l-1.75-1.75h-0.87L169.11,392.97z M168.89,324.54l1.09,0.66l1.31-1.09l-0.66-0.66h-0.66L168.89,324.54z
		 M169.55,369.14l0.87,2.84h2.19l0.22-1.97l-1.53-2.19h-1.09L169.55,369.14z M169.99,401.71l0.66,0.87l1.97-0.66v-1.53h-2.19
		L169.99,401.71z M176.54,319.95l-2.19,0.22l-1.53,2.4l1.75,3.72l-1.09,3.06l3.28,2.62l0.44,2.4l-0.88,0.44l-1.09-1.31h-0.66v1.75
		l0.22,1.53l1.53,0.22l1.97-0.44l1.53-3.5v-1.53l1.53-3.06l-1.75-5.03l1.31-5.03l-0.44-1.09h-0.66L176.54,319.95z M187.69,349.9
		l-6.78,3.28h-1.53v1.09l-0.22,1.09l-2.19,0.22l-1.97-2.62l-1.53,1.09v3.06l2.84,0.22l1.53,1.75l2.84-1.31l1.53-1.97l2.19-1.53
		l4.59-1.09l0.66-1.31l-1.53-1.75l1.09-1.31l-1.09-1.31h-0.87L187.69,349.9z M175.23,308.58v1.53l1.75,0.66l1.31-1.09v-1.09
		l-1.31-0.66h-1.31L175.23,308.58z M175.23,361.49l0.44,1.75l1.31,0.22l1.09-0.87l-0.44-2.19h-1.31L175.23,361.49z M189.22,391.65
		l-1.09,0.44v1.53l-2.62,4.81l-1.31-0.44l-1.53,1.31l-3.94-0.44l-0.87,0.87l-0.44,1.75l-0.22,1.97h1.75l3.28-3.06h2.84l0.66-1.09
		l1.09,2.84h1.31l1.31-1.97l-0.22-3.06v-3.28l0.87-1.53l-0.44-0.44L189.22,391.65z M177.42,388.37l0.44,1.31h0.87v-2.19l-0.87-0.44
		L177.42,388.37z M178.73,378.32l-0.44,1.09l0.66,1.31l2.19-1.09v-0.66l-0.22-0.88l-1.31,0.22H178.73z M179.17,410.02v2.62
		l1.97,0.87l1.53-1.09l0.22-2.84l-1.09-1.09h-0.87L179.17,410.02z M226.17,286.07l-7.87-0.44l-0.87,0.66l-9.62-0.66l-1.97,1.09
		l-2.62,0.66l-1.75,3.93h-0.44l-0.66-0.87h-1.75l-3.06-1.09l-3.72,2.62v1.09l-1.53,1.31h-2.84l-0.44,0.87h-2.84l-1.09,1.31
		l0.44,2.19h-2.84l0.44,2.62l0.22,1.97l-1.75,1.09v1.75h2.62l1.31,2.62h0.87v2.19l-3.28,1.75l-0.22,0.87v1.09h1.31l2.62-1.31
		l0.44,0.88l-0.44,6.56l1.09,1.31h1.53v1.09l-1.09,0.44l-0.22,4.37l0.87,1.97h0.87l1.53,1.09l-1.09,2.4l1.53,2.62v1.75l1.97,0.66
		l1.97-2.4l-1.09-6.12l2.19-1.75l1.31,0.87l-0.87,9.62l-0.87,20.11l0.44,7.87l0.87,11.8l1.31,6.56l1.75,7.87l1.97,4.81l1.97,2.84
		l2.62,3.94l3.5,5.03h0.87l7.87,3.06l1.09,1.09l6.12,1.09l6.78,0.66l5.47-1.31h1.75l4.15-2.62l3.72-1.09l3.5-4.81h1.97l0.87-0.87
		l3.5-1.97l-0.44-7.65l0.87-2.19l1.53-5.68l0.88-8.31l0.66-7.87l0.22-3.93v-4.37l0.88-3.28l-0.44-3.72l-0.87-21.2l-1.97-7.87
		l-1.53-3.06v-0.66l-3.72-8.53l-4.15-5.47l-1.31-2.84l-10.49-4.37l-3.94-0.87l-3.06-1.75l-7.87,1.09l-2.62,0.22l-3.28,1.75h-2.62
		l-3.72,3.28l-3.72,2.62l-1.09,1.97l-1.97,2.62l-0.66,2.62l-3.5,7l-0.87,3.93h-1.31l-0.66-3.5l-0.22-3.93l2.19-2.84v-1.75l0.87-0.66
		v-1.75l-1.75,1.97l-0.22-0.22l-1.09-2.84l0.44-1.53h1.31l1.75,1.09l2.62-2.19l0.66-2.62l0.87-3.94l0.66-0.66l2.84,0.44v1.09
		l0.66,0.44l2.19-4.37l0.44-1.97l1.53-1.09l2.62,1.09l0.66-1.09l0.88-2.19l3.93-0.22l1.97,3.94l2.19,0.66l0.87-0.66v-4.81l1.53-1.53
		h1.31v2.4l-0.22,3.94h1.09l1.53-1.53l-0.87-4.15l1.75-2.84l0.44-2.4l-1.75-2.19h-0.66L226.17,286.07z M183.98,355.8l-1.09,1.09
		v2.19h0.87l-0.44,2.4l-0.44,3.28l-2.19,2.62v2.62l0.87,2.4l3.06,2.84l0.22-0.66l0.22-0.44l1.75-5.25v-3.93l-0.22-3.5l-2.4-2.62
		l1.09-1.53l-0.66-0.66L183.98,355.8z M182.45,335.91v0.66l1.97-0.22l0.22-1.09v-1.31h-1.75L182.45,335.91z M182.45,406.52h1.31
		l1.31-0.66l-0.44-0.66h-1.75L182.45,406.52z M185.95,389.25l-0.44,0.87l0.44,0.87h1.31v-0.66l-0.22-0.66l-0.44-0.22L185.95,389.25z
		 M186.82,297.87l1.53,5.25l-0.44,0.87h-1.97v-5.9l1.31-2.84l1.09,1.09L186.82,297.87z M187.48,375.26l-0.66,0.66v3.06l1.31,1.75
		l0.44,5.03l-0.87,0.44v1.31l1.31,1.31h0.87l0.44-3.94l0.66-3.72l-2.84-3.28l0.44-0.87h2.19l-0.22-1.53l-1.53-0.22H187.48z
		 M188.13,340.94l-1.09,1.75l1.09,1.53l2.19,0.22l2.62-3.06l-0.88-1.53l-2.19-0.66v-0.87h-1.75V340.94z M189.66,306.4v1.09
		l-1.31,1.09l-1.09-0.87l1.75-1.75l0.22,0.22L189.66,306.4z M187.69,360.39v1.75h1.75l0.44-1.09l-0.87-1.09h-0.66L187.69,360.39z
		 M191.41,411.77l0.66,1.53h1.75l0.66-1.75l-1.09-1.31h-1.31L191.41,411.77z M193.38,391.44v1.53l1.09-0.44v-0.87h-0.66
		L193.38,391.44z M193.38,403.46l1.53-0.22l-0.22-0.87l-1.31-0.44V403.46z M195.34,418.32l-0.66,1.53l0.87,1.53l0.88,0.22v-1.53
		l-0.66-0.87L195.34,418.32z M198.84,297.22l0.22,0.87l0.22,1.75l0.44,2.4h-3.28l0.66-2.4l0.44-2.62l0.22-1.09h0.87L198.84,297.22z
		 M198.19,416.36v1.09l1.09,0.44l1.09-1.09v-1.53h-1.09L198.19,416.36z M207.59,419.42v1.31l1.09,1.53l1.97-0.87v-1.75l-0.66-1.31
		h-1.53L207.59,419.42z M222.23,420.29l-1.53,3.5l0.87,0.87l2.84-1.31l0.22,1.09h1.75l0.44-1.31v-3.5h-1.53L222.23,420.29z
		 M221.36,425.76l1.31,5.68l1.09,0.44v-3.93l0.87-0.44v-1.97l-1.31-0.66h-0.66L221.36,425.76z M231.2,425.1l1.31,1.09l0.66-0.66
		l-0.66-1.31h-1.31V425.1z M232.51,288.03V290l2.4,5.9l0.44,3.06l2.4,0.22l2.4-2.62h1.53l1.31,2.19v2.19l1.53,1.31l2.84-0.44
		l1.09,1.31h2.84l0.66-2.19l1.97,1.31l1.97-3.5v-0.44l-2.84-2.62l0.44-1.31h1.75l1.97-1.31v-1.97l-1.97-2.4l-6.78,0.22l-1.09,1.53
		l-3.72-1.31l-0.66-1.31l-2.19-0.87l-1.75-1.53l-1.97-0.22l-2.19-0.44L232.51,288.03z M234.26,427.07l-0.44,3.94h2.62l0.87-3.28
		v-2.19h-1.53L234.26,427.07z M234.69,417.89v1.53l1.75,0.87l1.53,2.4l3.06,3.06l1.75-2.62l-0.44-1.75l-0.87,0.22l-1.31,0.44
		l-0.66-3.06h-1.97l-1.53-1.75h-0.66L234.69,417.89z M243.44,291.75h-1.53l-1.53-1.31v-1.31l1.75,1.31l1.53-0.87l0.44,0.44
		L243.44,291.75z M243.22,417.23l-1.09,1.31l0.44,1.31l1.53-0.22v-2.19l-0.44-0.22H243.22z M244.97,420.29l-0.66,0.87l0.66,0.87
		h1.75l-0.44-1.53l-0.66-0.22H244.97z M249.12,295.25l-1.31,1.09l-1.31-0.66v-1.53l1.09-1.09h1.53V295.25z M250,305.74l0.44,1.53
		l1.53,0.44l0.66-1.09l-0.87-2.19h-1.31L250,305.74z M256.34,407.18l-1.53,1.09l-1.09,2.62v1.75l1.09,1.97l-0.66,1.09l-2.62-1.09
		L250,415.7v1.31h1.31l1.97,2.19h1.31v-1.31h3.28l0.87-1.09l0.66-2.19l-0.66-1.97h-2.4v-0.87l1.09-0.66l0.66-3.72l-0.66-1.75h-1.09
		V407.18z M256.34,306.83l-0.66,1.97l0.44,6.12l0.22,0.22v0.44h1.53l2.62,4.59l1.97,0.22v0.66l-1.31,1.75v3.28l1.75,1.75l1.31-1.09
		v-1.75l0.87-1.31h1.53l0.22-1.97l4.81-2.4l-0.44-1.09l-0.44-3.28l-1.31-4.15l-1.31-0.44v-2.4l-0.88-1.75h-0.87l-0.44,1.75
		l-2.4,0.22l-0.44,2.62l1.75,1.75l-0.22,3.72l-1.31,1.09l-1.31-1.09l-1.53-3.94l-2.62-0.44l0.44-1.97l4.15-1.97v-1.97l-1.75-1.53
		h-1.09L256.34,306.83z M258.09,301.81l0.87,0.87h1.09l0.66-0.66l-0.66-1.53h-1.53L258.09,301.81z M260.93,394.06l1.09,2.19v3.5
		l-1.31,1.75l0.44,3.28l-1.75,2.84l1.75,1.53l2.19-1.53l-0.22-1.97v-1.97l2.62-1.53l0.22-1.97l1.09-1.53l1.09-3.28l-0.66-1.75h-0.66
		l-2.62,2.4l-1.53-0.44l-0.22-1.53v-1.31h-0.87L260.93,394.06z M260.27,295.25l-0.66,1.31l0.66,1.53l1.53-0.44v-2.19h-0.87
		L260.27,295.25z M260.05,416.58l1.09,2.62l0.87-0.22l1.09-1.53l-1.09-2.19h-1.31L260.05,416.58z M260.27,291.09v1.53l1.75,0.44
		l1.31-0.87v-0.87L261.8,290h-0.44L260.27,291.09z M275.79,322.79l-0.66,3.06l-1.31,3.93v1.97l-0.22,1.97l-1.09,2.4v2.19l-0.87,0.44
		v2.19l-2.19,2.19v1.53l-0.87,1.31l-2.19-1.53h-1.75l-0.22,1.09l0.22,0.66v0.66l-0.88,6.12l0.44,1.09l1.31,0.66l1.31-1.09l0.44-3.72
		l1.97-3.28l3.5,0.44l2.4-2.4l1.97,0.44l2.19-2.4l-0.66-1.31h-0.88l-1.09,2.19h-1.09l-2.19-5.03l1.09-0.66l2.84,0.44l3.06-1.09
		l1.97,1.97l-1.09,1.75l-1.31,4.15l2.4,0.87l2.84,0.44l2.4,1.97l-1.09,1.53l-1.75-1.97l-1.31,0.66v1.53l-1.31,3.28l0.22,1.09v1.31
		l3.5-0.44v2.19l-2.62,5.47l0.44,1.09l1.97,0.66l0.66,2.84l0.22,1.31l-1.75,1.53l-1.09-0.44l0.87-2.62l-1.31-0.87h-2.62l-2.84,1.53
		l0.44,2.62l0.22,0.87v0.87h-3.06l-0.87,2.84l1.75,1.31l-0.66,1.31h-0.66l-1.09-2.19l-1.09,0.22l-0.22,1.97l-1.53-0.22v-1.09
		l0.22-0.87l-1.31-2.19l0.44-1.75h1.75l0.44,0.87l1.97-0.66l1.09-1.31v-2.84h-0.87l0.44-2.19l-1.31-1.31l-3.06,1.75v1.31l-2.19,2.4
		l-0.87-1.31v-2.84l1.53-1.31l-1.09-1.97l-0.88-2.4h-1.75l-1.09,3.72l0.22,3.72l0.44,3.28l0.44,2.4h-1.75l-0.87,1.75v1.53l2.19,1.97
		l0.44,3.06v0.66l-0.22,0.87l-1.97,0.22l0.44,5.47l1.53,1.09h1.31l1.09,1.31l0.87-0.44l-0.44-2.84l-0.22-5.03l-0.22-5.25h1.75
		l0.66,2.84l2.4,1.09l4.81-0.87l0.87,0.44v2.62l1.09,1.75l-1.31,1.31l-2.19-0.22l-0.66-2.62l0.44,3.06l0.22,3.06v0.87l-1.97-0.22
		l-2.84,3.28l-0.66,1.75l1.75,1.97l-0.87,1.75v1.97h1.75v-4.59l2.62-1.53v-2.4h1.53l1.75,2.19h1.09l1.09,1.53l1.53-3.72l-0.87-3.5
		l1.09-2.62l-1.75-1.31h-0.87l0.22-4.37l0.44-0.66l2.19,1.31l1.53-1.31l-0.66-2.62l1.31-2.62v-0.87l0.22-0.87l0.87,1.97l1.75-0.22
		l0.87-1.53l-1.31-3.06l0.22-3.28l0.22-3.72h-2.4l-0.88-1.75l0.66-1.97l2.4-0.44l0.87-9.4l-0.87-1.53l1.09-1.09v-5.68l0.22-5.47
		l-0.88-0.44l-2.19,1.31v4.81l-0.87,2.19h-1.09l-0.66-1.31v-5.47l-1.09-3.5l-2.19-0.66l-1.09-5.9v-3.28l-2.19-0.87v-0.88h-0.88
		L275.79,322.79z M265.96,320.83l-1.09,0.66l-1.53-0.66v-0.87l0.44-0.44h1.53L265.96,320.83z M266.39,323.89v3.28l-2.84,1.09
		l0.66,1.97l1.31,1.09l3.28-0.87l0.66-0.87l0.44-3.94l-1.09-1.31l-1.31-0.22L266.39,323.89z M263.55,334.82l0.87,3.28l1.75,0.22
		l2.84-3.06v-1.75l-1.97-1.75h-1.31L263.55,334.82z M266.39,294.81l-1.31,1.09v2.4l-1.31,1.31v1.31h1.75l1.97-1.97l-0.87-1.97
		l0.44-1.75l-0.22-0.22L266.39,294.81z M268.58,402.58v3.5l-2.4,0.88l0.87,4.15l1.31,0.22l1.97-1.53l0.87-4.15v-3.5h-1.97
		L268.58,402.58z M267.27,341.37v1.31h1.31l-0.22-1.09h-0.66L267.27,341.37z M272.08,348.37l-1.31,1.97l-1.31,3.5l0.87,1.75h1.31
		l0.44-2.62l2.4-1.97l-1.31-2.19l-0.44-0.22L272.08,348.37z M271.64,301.59v1.53l-1.75,3.06l0.44,3.72l0.44,0.88l2.19-1.97v-1.97
		l2.84-0.66l0.22-3.06l-0.22-2.62v-0.66h-2.19L271.64,301.59z M274.92,357.99l-1.53,1.75v1.31l0.22,1.31l1.97,0.22l3.06-3.28v-0.66
		h-1.75v1.09l-0.88,0.66l-0.87-0.87L274.92,357.99z M274.26,313.61l-0.44,1.09l0.44,0.87h1.31v-0.87l-0.22-0.66l-0.44-0.22
		L274.26,313.61z M276.67,395.37l-0.87,0.66l-0.44,2.62l-0.22,2.4l1.09,2.4l-1.97,1.97l0.44,1.09h1.09l1.97-1.97l1.31-3.5v-3.28
		l-1.09-2.19h-0.66L276.67,395.37z M277.32,310.99l1.53,1.09l1.75-0.22l0.22-1.53v-1.53h-1.09l-2.4-1.75h-0.44L277.32,310.99z
		 M277.54,350.77l-0.44,1.97l-0.22,2.19l1.31,1.53l2.19-0.87l1.09-3.5l-1.09-1.97h-2.62L277.54,350.77z M277.76,317.77v1.75
		l1.53,2.19h0.66l1.31-2.19l-0.87-2.19h-1.53L277.76,317.77z M279.07,405.86l-0.44,1.53l0.44,0.44l1.09-0.87l-0.44-0.66
		L279.07,405.86z M279.95,315.36v1.53h1.75l1.31-2.19l-0.44-1.31h-1.09L279.95,315.36z M281.7,371.76v3.94l-0.87,0.44v-2.4
		l-0.44-3.28l1.53-0.44h0.66L281.7,371.76z M283.01,316.89l0.66,3.72l1.97,0.22l0.87-1.31l-1.09-3.06l-1.31-0.87L283.01,316.89z
		 M284.1,322.14l-0.66,0.44v0.87h1.31v-0.87l-0.22-0.22L284.1,322.14z M290.44,324.32h-2.62l-2.19,2.19l-0.44,2.4l1.31,4.81
		l1.53,0.22l1.75,0.87l1.53,0.44l1.09,3.5l-0.66,3.5h0.66l3.5-0.88l1.09,1.53l0.22-1.53l-0.87-0.44v-1.53l-2.4-2.4v-3.28l0.87-3.5
		l-1.09-0.87v-6.34l-0.87-2.19h-1.31L290.44,324.32z M285.41,381.16v3.93l-0.22,3.94l1.09-0.44l1.53-2.62l0.66-4.37l-1.53-1.53
		h-0.66L285.41,381.16z M286.5,317.33v1.97l2.62-3.06v-0.66l-0.44-1.31h-0.66L286.5,317.33z M291.75,328.91v1.31l-1.53,1.53
		l-1.09-0.44v-1.31l1.53-2.84l0.66,0.87L291.75,328.91z M289.13,391.44l0.44,0.66l0.87-0.66v-1.31h-0.87L289.13,391.44z
		 M289.57,361.71v2.4l-0.22,2.84l1.53,1.09l1.53-1.09l-0.22-1.09l0.22-5.03l-1.75-0.87L289.57,361.71z M294.59,347.93l-2.19,3.28
		l-1.53,4.15v1.31l4.15,3.5v-0.66l3.06-3.5h1.09l0.87-1.53l-1.53-3.5l-1.53-0.66l-0.66-2.19h-0.87L294.59,347.93z M293.28,375.7
		l0.22,4.37l-1.75,1.53l0.44,2.62l-1.09,1.75l0.87,1.31l1.09-1.75v-1.09l3.72-4.37l-0.87-2.84l1.75-2.84l-1.97-3.06h-2.4V375.7z
		 M293.06,367.39l1.09,1.31h1.31v-2.19h-1.75L293.06,367.39z M295.9,335.03l-0.66,1.53l0.66,0.66l0.87-1.09l-0.44-0.44L295.9,335.03
		z M298.09,344l-1.53,3.28l0.87,1.31l1.09,0.44l0.87-2.4l-0.22-2.19l-0.66-0.22L298.09,344z"/>
	<path class="st0" d="M318.2,284.97l-2.62,2.84l0.22,6.78l0.66,0.87l4.81,1.75h1.09l1.97-1.53l0.44-3.5l5.25-2.62l0.87-2.84
		l1.97-2.62h5.03l3.5,1.31l3.72-0.87l1.31,0.87v1.53l-1.31,1.53l-5.03-0.66l-1.31-1.09h-0.66l-5.47,3.72l-1.53,1.09l-2.4,3.5
		l1.09,2.19l1.31,0.66l6.12-2.4h1.53l1.09-2.19h1.75l0.44,1.75h2.84l1.97-2.62l2.4,2.62l1.09-0.66l1.31-3.94l0.44-1.97l-2.84-2.62
		l1.75-1.31l6.56,0.66l2.62-0.22h5.25l13.12,0.44l14.43-0.44l24.05,0.87l4.37,1.31l6.12-0.66l7.65,2.84l6.56,3.94l4.81,3.06
		l4.81,6.12l1.75,5.03l1.09,7.87l-1.09,9.84l-1.31,5.9l-3.06,6.34l-7.65,7.65l-8.53,5.68l-7.43,2.62l-0.87,1.53l1.53,1.53l3.93,0.66
		l10.49,3.06l7.21,3.72l9.4,8.09l1.97,1.97l1.75,6.34l0.87,1.75l0.22,5.03l0.44,5.03l-1.09,3.72l-1.09,7l-3.06,7.21l-7.43,8.53
		l-9.18,6.34l-7,3.06l-6.12,0.87l-4.37,1.31l-7,0.44l-7,1.31l-3.93,0.22l-16.18-0.87h-27.11l-2.84-1.31l-1.75,1.53h-8.96
		l-24.48,0.44l-7.21,0.44l-1.75-1.75l0.44-2.4l1.53-3.94l-1.53-3.06l-0.87-5.9l1.09-2.4l6.56-0.44l5.47,1.75l1.09-1.09l2.19-4.15
		l0.22-10.93l0.87-5.25l0.44-14.43v-1.75l-0.22-33.45l-0.22-33.23l0.87-2.19l-1.09-3.5l-1.53-1.53l-5.03-0.66l-5.68-0.66l-4.59,1.53
		l-1.31-1.31l0.87-7.43l-1.31-2.62v-5.68l0.87-1.75h3.28L318.2,284.97z M326.95,284.76l-0.22,1.75l-0.87,2.4l-1.31,0.44l-1.75-1.75
		v-0.66l2.4-2.4h0.88L326.95,284.76z M325.2,423.35l1.09,0.22v-1.31h-1.31L325.2,423.35z M339.41,375.04l0.87,0.44v2.84l1.75,1.75
		v1.53l-3.5,2.19l-1.31,2.4l1.09,1.75l0.66,3.5l-1.53,2.62l-0.22,6.56l0.44,1.97l1.31,0.44l1.75-0.87l-0.44-4.15l1.31-1.97h1.09
		l4.15-3.94h3.06l2.19,1.09l1.31-1.09l1.31-4.37v-1.75l1.31-3.06l-0.44-2.19l-2.19-1.31l-3.06,2.62l-1.53-0.22l-1.53-2.84v0.87
		l-0.22,1.09l-1.53,0.22l-0.66-2.4v-2.19l0.66-2.19h-5.68L339.41,375.04z M338.75,405.21l-1.31,0.87l0.66,1.31h1.31v-1.75
		l-0.44-0.22L338.75,405.21z M337.66,365.42v2.19l1.31,2.62h1.09v-6.12h-0.44L337.66,365.42z M338.53,338.53l-0.44,5.9l2.19,1.97
		v1.97l0.87,2.4l-1.53,2.62l0.66,1.53l4.59-0.22l1.09-2.19l1.75-0.66v-1.75l-1.09-2.19l-3.06-0.22l-0.66-2.19l2.62-4.37l-0.66-2.19
		l-0.87-1.09l-1.75,1.75h-1.53l-0.44-1.75h-1.75V338.53z M339.41,326.29v2.4l0.87,1.75h1.75l2.62-2.19v-1.75l-3.5-2.19h-0.44
		L339.41,326.29z M339.85,333.29v1.53l1.53,0.66l1.09-1.75l-0.87-1.53h-0.66L339.85,333.29z M342.69,419.42l1.97,1.53h1.75v-1.31
		l-1.97-1.75h-1.09L342.69,419.42z M345.75,402.8v5.25l0.22,2.62v2.84h0.87l1.75-1.97l2.19,1.53l1.31-0.44v-1.75l-1.09-0.87
		l-2.19-0.22l-0.22-2.4v-2.62l2.19-1.31v-1.31h-1.53l-2.62-0.44L345.75,402.8z M346.4,297.87l1.97,1.53l1.53,1.31l-0.44,1.31
		l-1.75,0.44v1.31h1.75l2.62-1.31l0.87-1.53l-0.87-1.75l-2.84-2.84h-2.4L346.4,297.87z M346.84,329.57l0.22,1.53h2.19l1.75-2.84
		l-1.31-1.31L346.84,329.57z M348.81,312.52l-1.75,1.31l0.87,1.53l1.53,0.22l2.19-0.44l-0.22-2.4l-1.31-0.22H348.81z M356.02,398.21
		v1.31l1.09,1.53l-0.87,3.5l-2.4-0.22v1.31l2.19,1.75l0.87-0.44l2.62-4.15v-1.31l-1.75-1.75L356.02,398.21z M364.33,409.58l0.22,3.5
		l-0.88,0.88l-1.53-1.31v-1.97l-1.09-1.09h-3.06l-0.87,0.66l-1.53,2.19v4.59l-0.87,0.44v0.87h2.19l1.09-1.31l1.75-0.87l1.97,1.09
		l1.75-1.97l0.22-1.09l1.97,1.09l1.09-0.87l1.09-3.72v-2.19l-1.09-1.09h-1.09L364.33,409.58z M364.77,360.17l-1.31,2.19l-6.12,0.44
		v1.09l1.31,3.5v1.31l-1.31-2.4h-1.75l-0.44,1.31v2.4l0.66,1.09l6.12-0.22v-4.37l1.75-0.22l2.4-2.62l-0.22-3.28h-0.44L364.77,360.17
		z M359.52,353.18l-3.5-0.66l-0.66,1.75l1.09,1.53v3.06l5.47,2.62l0.44-0.44v-2.19l0.22-1.97l0.66-2.4l-2.19-2.19h-1.09
		L359.52,353.18z M355.59,288.91v1.31h1.31l-0.22-1.09l-0.66-0.22H355.59z M371.76,305.3l-0.22,5.25l-0.44,5.25v14.43l0.22,14.43
		l-0.87,2.19l-1.31-1.97l-3.94,0.66l-0.22-3.06l-2.84,0.22v-1.53l1.31-1.75v-1.31l1.75-2.4v-1.75l-1.53-3.06l-0.87-0.44l-4.37,0.87
		l-0.66,0.66l0.87,2.19l0.87,4.37l0.22,1.75l0.44,1.97h-2.4v3.06l-1.97,1.09l0.66,1.53l1.31,0.66l2.62-1.53l1.31,2.62h1.97
		l1.97-1.75l0.44,3.06l-0.87,1.31l0.44,4.15l0.87,1.09l4.37-4.37l-0.44-2.19l2.19-0.88l1.75-1.75l5.47-0.44l14.87-0.66l7.65-2.4
		l4.15-2.19l5.25-5.9l1.75-2.4v-12.02l1.53-2.62l-1.31-3.06l-2.84-4.15l-5.9-5.25l-4.15-2.19l-5.25-0.87h-3.5l-10.93,0.44
		l-1.09-1.09l-6.12-0.44L371.76,305.3z M358.21,315.58l-0.44,0.87l0.44,3.06l-1.75,0.66l0.44,1.75v2.4l3.72,1.75h1.53l-0.22-2.84
		l-0.22-2.62l-1.97-1.53v-3.28l-0.66-0.22H358.21z M358.21,421.82l-1.31,2.62l1.31,2.19h1.53l1.75-1.75l-0.22-1.53v-1.31l-1.97-1.97
		h-1.09V421.82z M357.77,385.31l0.44,5.25l0.22,1.31l0.22,1.53l1.31,0.87l0.66-1.31l2.84,0.44l1.31-3.06v-1.97l-1.75-1.53
		l-3.72-0.87l-0.88-0.22L357.77,385.31z M363.89,288.03l-2.4-0.44l-1.97-0.44l-1.31,2.84l1.31,4.59l2.4,0.87l1.31,1.31l1.97-1.97
		l2.19-1.53v-2.19l2.4-0.87h3.72l0.44-1.31l-0.66-0.44h-1.75l-3.5-1.75h-2.19L363.89,288.03z M358.21,376.35l0.22,1.53l1.53,0.22
		v-3.06h-0.87L358.21,376.35z M362.36,396.9l-1.75-1.75h-1.09v2.19l1.75,1.09v2.19l1.53,1.53h1.53l1.31-2.19l-0.44-2.4l0.87-1.53
		l-0.44-1.31h-1.75L362.36,396.9z M361.93,300.71l-0.66,0.66v0.66h1.31v-0.88l-0.44-0.22L361.93,300.71z M371.98,355.58l-1.09,3.93
		l1.31,3.06l-0.44,3.06l-0.87,6.56v19.67l0.44,19.24l1.31,1.97l6.34-0.44l15.74-0.44l9.62-1.31l6.34-1.31l4.37-2.4l4.37-4.37
		l1.75-3.72v-9.62l0.22-9.84l-1.75-2.62l-1.75-1.75l-1.31-1.75l-2.84-1.97l-7.43-3.94h-3.28l-3.06-1.53H381.6l-4.81,0.44l-3.06-1.75
		l-0.22-1.09v-1.09l1.31-1.09v-2.84l-0.87-0.87l1.09-2.4l-1.09-1.31h-0.66L371.98,355.58z M383.57,423.57v1.31l0.87-0.22v-0.87
		l-0.44-0.22H383.57z M411.11,348.37l0.87,1.75l2.4-0.22l0.22-1.09v-0.87l-1.53-1.75h-0.66L411.11,348.37z M425.32,318.64l1.75,2.4
		l1.31,0.22l0.66-1.97l-1.31-1.97h-1.31L425.32,318.64z M428.16,410.89l-0.44,0.87l0.66,2.62l1.97,1.53l0.87-1.09l-1.31-3.72
		l-0.87-0.22H428.16z M428.16,401.49l1.09,1.53h2.4v-2.19h-3.06L428.16,401.49z M432.97,382.69l-0.44,2.4l-3.06,1.97v0.87l0.22,0.87
		l3.93,1.31l2.4,1.31l1.09-0.66l0.44-2.19l0.22-2.19l0.44-0.87l2.84,0.44l1.31,1.09l1.09,2.84h1.09l1.09-1.09l1.31,1.53l1.53-0.22
		l0.22-1.97l0.44-1.97l-1.31-1.97l-2.84,0.44l-1.09-1.31h-3.93l-3.06-2.62h-0.66L432.97,382.69z M430.35,319.08l1.31,1.31h1.09
		l1.31-0.87l1.75,1.31l1.97-1.31v-2.19l-1.09-0.87l-1.97,1.31l-3.06-1.31h-1.31V319.08z M436.47,321.48l-1.31,0.87v0.87l0.22,0.87
		l1.53,0.87l1.75-1.75v-1.53h-1.09L436.47,321.48z M437.56,325.2l-1.09,1.09v0.87l0.87,1.09l1.31-0.44v-1.75l-0.66-0.44
		L437.56,325.2z M449.59,398.21l0.22,1.09h1.09v-0.87l-0.66-0.22H449.59z"/>
	<path class="st0" d="M561.08,283.88l9.18,1.97h3.06l1.97,1.31l3.28,1.75l1.97-0.87h3.28l3.72,1.97l9.62,4.37l2.41,1.97l9.18,7
		l5.9,5.25l8.53,12.24l4.59,11.15l1.97,12.46l0.22,9.4l-0.44,11.59l-0.44,9.4l-1.97,8.74l-2.84,7.21l-4.15,8.31l-4.15,5.68
		l-12.46,12.46l-5.9,3.28l-10.93,5.47l-3.5,1.31l-17.27,4.59l-7.87-0.66l-8.74,1.09l-19.46-1.09l-6.12,0.66L485,432.1l-8.96,0.66
		l-1.09-1.75l0.22-8.53l0.22-8.31l1.09-0.87l11.37,0.66l2.19-0.66l2.4-3.94V384l0.44-23.17v-46.34l-1.09-2.4l-0.44-4.37l-0.22-4.15
		l-1.53-2.4l-1.53-0.87l-4.37,0.44l-1.53,1.09h-5.47l-1.53-1.53l0.44-5.68l-0.44-6.12l-0.44-4.15l1.09-1.09l6.34,0.22L561.08,283.88
		z M487.84,420.95v2.19l1.53-0.44l0.22-0.66l0.22-0.87l-0.66-0.66L487.84,420.95z M494.62,293.72v1.75l-3.06,1.97v1.09h3.28
		l2.84-1.75l-0.22-1.31v-1.53h-1.53L494.62,293.72z M499.21,302.9l-3.06,2.4l0.44,2.4h2.62l1.31,3.72l1.09,0.44l2.84-2.4l0.87-1.97
		l-3.72-3.72l0.44-2.62l-2.4-3.5h-0.88L499.21,302.9z M496.59,407.61l0.66,0.87l0.87-0.44v-1.75h-0.87L496.59,407.61z
		 M499.65,387.72h-1.97v5.03h0.66l1.09-1.31h1.53l1.75,1.75l-2.4,2.4l-0.44,1.31l1.09,1.53l-1.09,4.59l-1.09,1.97l0.88,1.09
		l0.66,2.4h0.88l1.75-0.87v-2.4l1.09-4.37l0.22-2.84v-2.84l0.87-3.5l-0.22-3.72l-0.22-3.94h-1.09L499.65,387.72z M497.68,397.34
		l0.44,1.53l1.09-0.44v-0.87l0.22-0.87h-1.31L497.68,397.34z M498.34,292.19l0.87,0.87l1.53-0.66v-2.19h-1.75L498.34,292.19z
		 M501.18,344.65l0.87,1.97h0.87l1.75-1.09l0.44,1.31l-0.87,1.75l-4.15-0.44l-1.75,2.4l0.22,1.53l0.22,1.75h2.62l-0.22,0.87v0.87
		l-0.44,4.37l-1.53,3.06l1.31,2.19l0.44,3.5l1.75,0.22l1.09-2.19l0.44-3.28l2.18-2.19l1.09-2.19l0.22-4.15l-1.31-1.09v-2.19
		l1.31-2.19v-1.53l-2.84-4.37h-2.84L501.18,344.65z M498.77,381.82l0.44,0.22l2.84,0.44v-0.88l-1.75-0.87h-0.88L498.77,381.82z
		 M499.87,373.07v1.97l1.31,3.28l1.31-1.53l0.22-0.87l3.06-0.66v-1.09l0.22-1.09l-1.75-2.84h-1.09L499.87,373.07z M501.18,316.89
		l-0.88,2.62l1.31,2.84h1.31l3.06-1.53l1.75,0.66l1.75-1.75v-0.66l-0.87-1.31l-1.97,1.53l-0.66-0.66v-2.62l-1.09-1.09h-2.41
		L501.18,316.89z M501.4,296.12l1.97,1.75l0.88,2.4h1.75l0.22-0.66l0.66-3.06l-3.72-1.97h-1.09L501.4,296.12z M507.08,323.23
		l-3.93,1.31l-0.88,0.87l0.22,5.03v1.75l-0.22,2.84l-0.44,3.06l1.97,3.93h0.88l1.31-3.06l-0.44-2.4l1.53-0.87l0.88-3.5l-0.44-6.56
		l1.09-0.66v-0.87l-0.87-0.44L507.08,323.23z M504.24,291.97l-1.09,1.31l1.09,1.09l0.87-0.66v-1.09l-0.44-0.44L504.24,291.97z
		 M504.46,358.43h-1.09v-1.31l0.44-0.44l1.31,0.44L504.46,358.43z M506.43,312.08v3.28l1.31,0.44l0.44-0.44l0.87-3.28l-0.44-1.53
		h-1.31L506.43,312.08z M508.39,388.37l-0.66,1.53l1.09,2.84l2.41,0.66l1.75,1.53l1.31-0.44l-0.44-1.31l-2.19-1.09l0.44-2.62
		l-1.31-0.44v-1.53l0.88-0.66v-2.62l-0.88-1.75h-1.75L508.39,388.37z M509.49,400.62h-1.31l-0.44,1.31v5.68l0.87,2.19l1.53,0.44
		l2.84,1.53v1.75l-0.87,1.31l0.87,1.53h1.75l0.44-1.31v-2.62h0.87l0.87-1.75l-1.09-1.31l-2.62,0.22l-0.22-1.31v-1.09h-0.66
		l-1.53,1.53l-1.31-1.53l-0.22-2.84l3.93-0.44l0.22-4.81l-0.87-1.09h-1.09L509.49,400.62z M508.61,291.53l-0.22,2.19l-0.44,2.4
		l1.75,1.75l0.66,1.75l-1.75,1.53l0.44,1.53l2.19,0.44l1.53-0.44v-1.53l-0.22-1.75l0.87-2.19h1.97l0.66-0.44l-0.44-1.31h-1.53
		l-1.09,1.09l-1.75-3.06l0.66-4.59h-0.88L508.61,291.53z M509.27,305.96l-0.66,1.53l1.31,1.31h1.31l0.44-1.31l-0.66-2.4l-0.87-0.44
		L509.27,305.96z M509.92,374.17l-0.44,1.75v1.53l-0.22,1.53l0.66,0.66l1.31-0.66l0.22-3.5v-1.09h-0.66L509.92,374.17z
		 M511.24,353.84v1.97h1.31v-0.87l-0.22-0.66l-0.44-0.22L511.24,353.84z M519.76,299.62l-2.84,0.66l-0.66,1.09l-2.19,5.9l-1.09,3.06
		l-0.44,4.59l-0.87,0.44v2.19l1.97,3.06h0.66l1.75-3.06h0.66l1.31,0.66l-0.22,2.62l-0.44,2.62l1.31,3.5l0.87,0.22l0.22-1.09
		l-0.22-2.4l2.62-2.84l1.31,1.75l-0.44,1.31l-0.87,2.19l0.44,2.19l3.28,1.09l1.09-1.53v-1.53l-1.75-2.62l0.87-1.75v-1.53l-1.75-1.09
		l0.22-1.53l0.22-1.31l-1.31-2.84l-2.4,0.44l-1.09,0.44l-0.87,2.19h-0.66l-1.09-2.19l-2.19-0.87v-1.75l2.19-3.28v-1.97l1.31-1.09
		l1.97,1.75l-0.66,3.93l1.31,1.09l1.31-2.84l1.09-1.53l-0.87-2.4l-2.62-1.31l-0.44-0.44l2.41-1.75v-1.53l-1.09-0.44L519.76,299.62z
		 M521.07,330.66l-1.09,1.09v2.84l-1.31,1.09l-1.31-0.66l-1.75,1.53v1.09h-1.31v-1.53l-1.31-1.75l-1.31,1.31v5.25l1.75,2.62v1.31
		l-1.75,2.19v1.53l0.66,0.44l2.84-0.87l1.75-5.47v-2.62l2.19-3.28h1.53l1.09-1.31l0.87,0.66v5.47l1.09,0.87h-1.75l-1.09,1.09v3.06
		l1.31,0.44l1.09-0.66l1.53,0.22l1.31-2.19l-0.66-2.19l-0.88-0.66l0.44-1.75h0.66l0.66,0.87h0.66v-3.5h1.31v-1.09l-1.31-1.75
		l-1.31,1.75v1.09l-0.66,0.44l-1.53-2.62v-1.97l1.31-1.75v-0.44h-1.75L521.07,330.66z M511.89,361.71l0.87,1.75l0.44,2.62l0.88,1.09
		h2.4l0.44-1.31l-1.31-1.97l-1.75-1.09L511.89,361.71z M518.45,386.63l-2.41,0.87l-1.53,2.84l1.31,1.53h1.09l3.5-3.06v-0.87
		l-1.53-1.53l-0.22,0.22H518.45z M516.48,352.09l-1.75,3.06v1.53l1.97,2.84l1.31,2.84h0.88l-1.09,1.09v1.97l2.4,1.75h1.09l1.09-2.62
		l2.19-1.09l0.88-2.62l-1.31-1.09l-5.25-0.44l-0.66-1.75l1.09-1.31l1.09,0.22v-0.87l-1.97-0.44v-2.62l-0.88-0.22L516.48,352.09z
		 M515.61,401.27l0.87,1.97h1.75l0.66-2.19l-1.09-1.75h-1.75L515.61,401.27z M517.79,371.1l-1.75,1.75v4.37l0.87,2.19l-0.87,2.19
		l1.75,3.28v1.09h0.88l0.87-1.09l0.44-6.12l2.41-1.75l-0.44-1.75l-2.19-0.44l-0.44-3.5l-0.66-0.22H517.79z M517.79,296.34
		l-0.44,1.31l0.44,0.88h0.88l0.44-1.09l-0.66-0.66L517.79,296.34z M517.79,287.16l0.44,2.84l1.09-0.44v-2.84l-0.87-0.44
		L517.79,287.16z M519.11,350.56l0.44,1.53l2.19,2.19l1.53-1.09l0.66-2.4l-1.75-1.97h-2.19L519.11,350.56z M523.26,387.06
		l-2.84,2.84l-0.44,9.4l2.19,2.62v5.03l1.53,1.53l-1.09,1.53l1.31,1.75l1.53-1.53l-1.09-2.4l0.88-2.4l-1.75-3.5l-1.09-9.4l1.53-3.06
		v-1.97l-0.22-0.22L523.26,387.06z M521.95,319.51l-0.88-0.22v-0.66l-0.22-0.66h1.53L521.95,319.51z M523.04,298.75v1.53h1.75
		l1.09-1.75l-1.09-1.31h-1.09L523.04,298.75z M524.35,293.06v2.4l1.09,0.87l1.53-1.31v-1.53l-0.87-1.09h-1.09L524.35,293.06z
		 M526.76,360.39l-0.66,1.53l0.87,1.09l0.66-1.53l-0.44-0.66L526.76,360.39z M526.54,392.75l0.44,1.31h1.09l0.44-1.53l-1.31-1.31
		L526.54,392.75z M529.82,296.34l-2.84,2.4v1.53l0.66,1.53h1.09l2.84-3.28l-0.22-0.88l-0.22-1.09h-0.66L529.82,296.34z
		 M529.38,292.19l-0.44,1.53l0.87,0.87h1.53l0.66-2.19l-1.09-1.31h-0.66L529.38,292.19z M532.66,302.9l-0.66,0.88l0.22,25.14
		l0.22,23.17l-0.22,53.78l0.66,6.12l0.87,1.09l2.41-0.44l11.37-0.22l6.78,0.44l9.4-1.75l5.68-2.84l3.28-2.62l2.62-1.09l5.68-6.56
		l3.94-8.53l-0.22-2.84L586,384l1.31-14.87l0.44-22.3L586,336.35v-2.4l-1.97-7l-1.97-5.9l-2.84-4.81l-6.34-7.43l-4.59-2.62
		l-7.65-2.4l-11.81-0.66l-8.09-0.22H532.66z M575.29,409.58l-1.09,1.75v1.31l1.09,0.44l1.09-1.09l0.44-2.19l-0.88-0.22H575.29z
		 M579.66,406.74l-2.84,2.84l2.19,1.75h1.53v-1.09l0.22-1.09v-1.31l-0.66-0.44L579.66,406.74z M580.97,291.53l-2.19,2.19l0.22,1.09
		l0.22,0.87l1.53,0.44l1.31-1.09v-1.97l-0.66-0.66L580.97,291.53z M580.97,306.4l-0.44,3.28l3.28,1.31h0.66l2.84-2.4v-2.19
		l-1.53,0.44l-1.75,0.66l1.53-2.62v-1.75l-1.09-0.87h-1.09L580.97,306.4z M584.03,292.41l-1.53,1.09v1.53l1.97,1.75h1.97l0.44-1.75
		l-1.09-2.4h-0.87L584.03,292.41z M583.16,404.33v1.75h1.09l1.09-1.09v-1.09h-1.09L583.16,404.33z M587.75,390.78v2.4l1.75,1.75
		h1.31l0.44-0.87l2.62,2.19l1.75-0.87l1.97-2.84l-3.06-2.4h-4.81L587.75,390.78z M594.74,312.08v1.09h-0.44l-1.75-1.75h-0.87
		l-2.84,2.62l1.31,1.31l3.28-1.09l1.31,1.97l1.31-1.09l-0.22-1.75l1.53-0.44l0.44,1.53l-1.31,1.31l0.87,1.31l0.88-0.44v-1.75
		l2.19-1.31v-1.53l-2.62-2.84h-0.88L594.74,312.08z M590.37,383.35l-1.09,1.31l0.66,0.87h1.31V384l-0.44-0.22L590.37,383.35z
		 M590.15,378.1l0.44,1.97h1.75v-1.75h-1.09L590.15,378.1z M590.59,300.49l1.09,1.31l0.87-0.87l-0.44-1.53h-0.88L590.59,300.49z
		 M592.12,338.75v1.53l1.31,1.53l1.53-0.87l0.22-2.62l-0.88-1.97h-1.31L592.12,338.75z M595.18,326.73v2.19l-2.41,0.22v3.06
		l1.09,0.22l0.88-1.09l1.09-1.53l2.62-0.22v1.31l-1.75,0.44l-1.09,0.87v2.84l2.62,1.31l0.22,1.09l-0.87,1.31l-1.09,2.84l1.31,1.97
		l-0.44,0.66h-3.93l-0.87,1.31v1.31l0.22,1.31l2.41,0.22l1.53-1.75h1.09v1.97l1.31,1.09l1.09-0.87l-1.75-3.06l1.09-1.31l-0.22-1.31
		v-1.09l2.4-1.31v-1.09l-0.88-0.87l-0.22-3.94l-0.44-4.15l-0.22-4.15l-1.53-1.53h-2.4L595.18,326.73z M593.43,353.62v1.97l1.31,1.09
		l1.53-0.22v-3.06l-2.19-0.44L593.43,353.62z M593.87,371.32l0.66,1.31l1.09-0.66l-0.66-1.31h-0.66L593.87,371.32z M594.96,303.12
		l1.53,2.62v1.97l0.87,1.31l1.31-1.75l0.44-2.62l-1.31-1.97l-1.75-0.87L594.96,303.12z M595.62,363.24h0.87v-1.31l-0.87-0.44V363.24
		z M602.18,330.44v1.75l1.75,1.97h1.53l1.09,1.09l0.44-1.09l-1.75-2.19v-1.75l-0.44-1.31h-1.09L602.18,330.44z M602.61,316.45v1.75
		l1.09,1.09h1.09l0.88-1.75l-0.88-1.75h-1.53L602.61,316.45z M604.14,322.57l-0.22,1.75v1.09h1.31l1.31-3.72v-0.66h-1.09
		L604.14,322.57z M612.45,332.63l-0.66,2.84l-2.62,1.97v1.53l2.62,2.4l1.97-0.44l0.87-2.62l1.53-1.75l-1.09-4.37l-0.66-1.09h-1.31
		L612.45,332.63z M611.36,346.18v1.53l1.97,2.4l3.06-0.66l1.31-1.09l-0.66-1.09l-3.28-2.19h-1.31L611.36,346.18z M611.8,320.61h1.31
		v-1.31h-1.31V320.61z M613.11,367.17l0.87,0.87l0.66-0.87l-0.87-0.87L613.11,367.17z M616.61,363.24l0.44,1.09h0.87l0.22-0.87
		l-0.87-0.22H616.61z M618.35,343.78l0.44,1.53l1.31,0.44l0.66-1.53l-0.66-1.75h-1.31L618.35,343.78z"/>
	<path class="st0" d="M676.5,354.71l2.41,0.66l3.28-0.87l3.72,1.31l0.87-0.44l9.62-0.44l7,0.44v2.62l1.75,4.37l-1.09,10.49
		l-0.22,9.62l-1.09,0.87l-12.9-0.87l-2.41,0.22l-13.77,0.87l-13.99-0.44h-12.24l-4.15,0.44l-1.53-2.19l0.66-0.87l0.22-11.15v-12.68
		l0.66-1.75h7.21l4.59,1.75l2.4-1.97l2.62,0.22l0.22,3.06l7.43,1.09l1.53,1.75h2.84l0.87,2.19h1.09l2.4,2.4v0.87h-2.4l-3.94-3.72
		h-0.66v1.97l-0.22,1.97l-3.5-0.22l-1.75,1.75h-1.75l-0.22-1.31v-1.31l-0.88-2.19l-0.44-2.62h-1.31l-1.09,1.53v3.06l-2.62,1.31
		l-2.19-2.19h-1.53l-0.87-1.97h-1.31l-0.66,2.62l-1.31,2.84l-0.22,3.06v3.28l1.31,1.97h2.62l0.87,2.19h0.88l1.31-1.53v-1.31
		l-3.06-2.84v-4.15l3.28,0.44l-0.22,0.87l-0.66,2.4h4.59l3.06-1.31v-1.75l1.53,0.44l0.88,1.31l-1.09,3.28v1.09l3.28-0.22v0.66
		l-0.22,0.66v0.66l-0.22,0.66l1.97,0.22l2.19-2.19l2.19-0.66v-1.31l-1.53-2.4h-0.66l-0.87-1.75l1.09-0.87l4.37,3.28l-1.53,1.75
		l0.22,2.62v2.4l1.53,1.09l5.03-4.37l1.31-4.81l1.09-0.44l-0.22,4.59l2.62,2.19h1.53l0.87-2.62l2.84-0.44l1.53,0.87l1.31-0.44v-1.75
		h-1.31l-1.53-1.75l1.09-1.09l2.41,1.31v3.5l-0.44,1.53h-1.97v0.87l1.31,2.19h1.31v-1.53l2.62-2.4h1.09l2.19,1.75l1.09-1.31
		l0.44-0.87l-1.31-0.66v-5.03l-1.53-2.84l2.41-3.06v-1.53l-1.09,0.22h-1.97l-1.53-1.75h-3.28l-1.31,1.97l-2.41-3.93l-3.06-1.09
		l-2.84,1.75l-0.66,1.97h-0.88v-0.87l-0.22-0.87l-1.09-0.87l-5.25,0.44l-2.62,0.66l-1.53-1.97l0.44-1.97l1.53-0.44h1.97
		L676.5,354.71z M693.12,363.67l0.66,2.19l-0.44,1.09h-1.31l-1.53-1.53l-1.31,0.44l-0.22,1.09v1.09h-2.62l-0.22-1.97l3.06-2.4
		l1.53,0.44l1.31-0.87l0.66,0.22L693.12,363.67z M697.49,370.89l-1.31,0.44l-0.66-0.44l0.66-1.31h1.31V370.89z"/>
	<path class="st0" d="M725.25,284.32l12.24-1.09l12.9,1.09l0.66-0.44l20.99-0.44l9.18,0.87l6.56,0.44l0.88,1.75l-0.88,7.65v8.09
		l-1.31,1.53l-5.25-0.22l-7-0.22l-1.97,1.75l-1.53,3.72l0.22,12.46l0.22,14.43v3.06l-0.44,65.58l0.66,4.81l0.87,3.28l1.75,0.87
		l13.77-0.87l0.88,1.97l-0.88,6.34v3.72l1.09,3.5l0.22,3.72l-1.75,0.87l-8.31-0.87l-37.82-0.44l-23.83,0.44l-1.31,0.66l-1.53-1.31
		l0.22-7.87l0.22-7.65l1.75-1.75l10.93,0.22l3.28-2.62l0.87-3.06l1.09-5.03l-0.88-5.03l0.22-0.66v-0.66l1.09-22.95l-0.88-4.37v-4.37
		l-0.22-31.26l-0.22-29.29l-0.87-2.19l-1.53-1.09l-3.28,0.66l-10.71,0.22l-1.31-1.97l0.66-1.09v-14.21l2.19-0.87l3.5-1.97h0.87
		L725.25,284.32z M726.78,422.04l-2.62,1.75l-3.5-1.09l-1.31,1.31v2.84l1.09,0.87l5.47-0.22l1.53-2.19v-2.84l-0.22-0.22
		L726.78,422.04z M733.78,418.98l-2.4,1.97l-1.53-1.53l-1.09,1.09v1.53l1.31,0.44l1.09,2.4l2.19-0.22l2.19,2.62l1.97,0.66l2.84-3.28
		l0.66-1.09l-0.66-1.31h-4.15l-1.53-1.75l-0.44-0.87L733.78,418.98z M742.52,347.93v2.19h-0.66l-2.84-1.75h-3.06l-0.66,1.31
		l1.53,2.19h2.84l1.53,1.31l-0.66,1.97l-0.44,1.97l5.68,0.66l-0.22-0.87v-0.87l-0.66-3.5l-1.75-1.97l1.09-1.75l-0.44-1.53h-0.88
		L742.52,347.93z M740.34,398.43l-2.19,1.53l-1.97,0.66l0.22,7.21l1.53,0.22l1.31-2.84h2.41l0.87-1.53l-0.87-5.03l-0.66-0.22H740.34
		z M737.5,386.63h1.09l0.44-1.09h-1.97L737.5,386.63z M740.34,408.92l-0.44,0.66l-0.66,3.28l-2.19,1.97v1.31l1.09,1.53l2.4,0.44
		l3.5-3.06l-1.97-1.31l-0.22-1.31v-1.09l-0.44-1.97l-0.66-0.22L740.34,408.92z M747.11,374.6l-1.53,0.44l-2.4,3.94l-2.41,0.22h-3.06
		v1.09l-0.22,0.87l1.97,1.09l1.09-1.09l2.19,0.66l2.84-0.22l2.84-1.75l0.66-2.84l0.22-2.19h-1.09L747.11,374.6z M743.4,358.86
		l-1.31,1.09l-0.22,1.09v1.09l-2.19,0.87v0.66l3.5,1.75l0.66-2.19l2.84-1.31l0.66-1.09l-0.88-0.87l-1.53-0.44L743.4,358.86z
		 M742.3,389.69l-0.22,0.44l-1.09,3.5l2.19,1.75l1.97,0.44l1.53-0.87l-0.22-3.72l-2.4-2.19h-1.75V389.69z M742.09,384.66l0.87,0.66
		v-1.97h-0.87V384.66z M743.84,417.45l-0.66,2.4l2.4,2.62v0.87l-1.31,1.09v0.66h4.15l3.5-1.09l0.22-3.5l0.87-0.87v-1.31l-1.53-1.53
		l-1.31,0.87h-1.97l-1.09-1.75h-1.53L743.84,417.45z M744.27,398.65l0.22,1.31l1.53,0.22l0.66-1.09l-0.88-1.53h-1.75L744.27,398.65z
		 M746.02,401.93v0.44l2.19,0.87v1.31l-1.09,1.75l1.09,2.19l4.59-0.44l2.84-1.31l0.44-1.75l-1.09-1.31h-1.97l-1.09,1.31h-0.66
		l-0.66-3.28l-2.84-1.09h-1.31L746.02,401.93z M746.24,367.17l1.53,1.53l1.31-1.53l-1.09-1.31h-1.09L746.24,367.17z M749.96,422.48
		l-1.09,0.66l-0.88-0.87l0.66-1.09h1.31V422.48z M749.08,364.98l0.87,0.44l1.31-1.31l-0.44-1.31h-1.75V364.98z M752.14,410.67
		l1.97,3.28l1.97,2.84h3.93l0.44-2.62l-1.53-1.75h-0.88l-1.09,2.19h-0.87l-1.31-1.31v-1.09l-1.97-2.4h-0.66V410.67z M763.73,415.05
		l-3.93,4.37l-3.28-0.22l-1.31,1.31l-0.22,1.31v1.31l2.62,0.44l0.87,0.66h1.31l1.53-1.97l1.09,1.09v2.4l1.53,0.44l2.84-2.84
		l1.97,1.09l2.62-1.09l0.66,0.44l1.53-0.87l-0.22-2.4l-2.41-0.22l-1.31-1.75l-2.41,0.44l-1.31-0.87v-2.84l-1.09-0.22H763.73z
		 M763.73,411.11l-1.31,1.31l1.09,1.31l1.75,0.44l0.88-0.66v-1.09l-0.22-1.09l-1.09-0.22H763.73z"/>
	<path class="st0" d="M811.17,284.32l12.24-1.09l12.9,1.09l0.66-0.44l20.99-0.44l9.18,0.87l6.56,0.44l0.88,1.75l-0.88,7.65v8.09
		l-1.31,1.53l-5.25-0.22l-7-0.22l-1.97,1.75l-1.53,3.72l0.22,12.46l0.22,14.43v3.06l-0.44,65.58l0.66,4.81l0.87,3.28l1.75,0.87
		l13.77-0.87l0.88,1.97l-0.88,6.34v3.72l1.09,3.5l0.22,3.72l-1.75,0.87l-8.31-0.87l-37.82-0.44l-23.83,0.44l-1.31,0.66l-1.53-1.31
		l0.22-7.87l0.22-7.65l1.75-1.75l10.93,0.22l3.28-2.62l0.87-3.06l1.09-5.03l-0.88-5.03l0.22-0.66v-0.66l1.09-22.95l-0.87-4.37v-4.37
		l-0.22-31.26l-0.22-29.29l-0.87-2.19l-1.53-1.09l-3.28,0.66l-10.71,0.22l-1.31-1.97l0.66-1.09v-14.21l2.19-0.87l3.5-1.97h0.87
		L811.17,284.32z M812.7,422.04l-2.62,1.75l-3.5-1.09l-1.31,1.31v2.84l1.09,0.87l5.47-0.22l1.53-2.19v-2.84l-0.22-0.22L812.7,422.04
		z M819.69,418.98l-2.4,1.97l-1.53-1.53l-1.09,1.09v1.53l1.31,0.44l1.09,2.4l2.19-0.22l2.19,2.62l1.97,0.66l2.84-3.28l0.66-1.09
		l-0.66-1.31h-4.15l-1.53-1.75l-0.44-0.87L819.69,418.98z M828.44,347.93v2.19h-0.66l-2.84-1.75h-3.06l-0.66,1.31l1.53,2.19h2.84
		l1.53,1.31l-0.66,1.97l-0.44,1.97l5.68,0.66l-0.22-0.87v-0.87l-0.66-3.5l-1.75-1.97l1.09-1.75l-0.44-1.53h-0.87L828.44,347.93z
		 M826.25,398.43l-2.19,1.53l-1.97,0.66l0.22,7.21l1.53,0.22l1.31-2.84h2.41l0.87-1.53l-0.87-5.03l-0.66-0.22H826.25z
		 M823.41,386.63h1.09l0.44-1.09h-1.97L823.41,386.63z M826.25,408.92l-0.44,0.66l-0.66,3.28l-2.19,1.97v1.31l1.09,1.53l2.4,0.44
		l3.5-3.06l-1.97-1.31l-0.22-1.31v-1.09l-0.44-1.97l-0.66-0.22L826.25,408.92z M833.03,374.6l-1.53,0.44l-2.4,3.94l-2.41,0.22h-3.06
		v1.09l-0.22,0.87l1.97,1.09l1.09-1.09l2.19,0.66l2.84-0.22l2.84-1.75l0.66-2.84l0.22-2.19h-1.09L833.03,374.6z M829.31,358.86
		l-1.31,1.09l-0.22,1.09v1.09l-2.19,0.87v0.66l3.5,1.75l0.66-2.19l2.84-1.31l0.66-1.09l-0.87-0.87l-1.53-0.44L829.31,358.86z
		 M828.22,389.69l-0.22,0.44l-1.09,3.5l2.19,1.75l1.97,0.44l1.53-0.87l-0.22-3.72l-2.41-2.19h-1.75V389.69z M828,384.66l0.88,0.66
		v-1.97H828V384.66z M829.75,417.45l-0.66,2.4l2.4,2.62v0.87l-1.31,1.09v0.66h4.15l3.5-1.09l0.22-3.5l0.87-0.87v-1.31l-1.53-1.53
		l-1.31,0.87h-1.97l-1.09-1.75h-1.53L829.75,417.45z M830.18,398.65l0.22,1.31l1.53,0.22l0.66-1.09l-0.88-1.53h-1.75L830.18,398.65z
		 M831.93,401.93v0.44l2.19,0.87v1.31l-1.09,1.75l1.09,2.19l4.59-0.44l2.84-1.31l0.44-1.75l-1.09-1.31h-1.97l-1.09,1.31h-0.66
		l-0.66-3.28l-2.84-1.09h-1.31L831.93,401.93z M832.15,367.17l1.53,1.53l1.31-1.53l-1.09-1.31h-1.09L832.15,367.17z M835.87,422.48
		l-1.09,0.66l-0.88-0.87l0.66-1.09h1.31V422.48z M834.99,364.98l0.88,0.44l1.31-1.31l-0.44-1.31h-1.75V364.98z M838.06,410.67
		l1.97,3.28l1.97,2.84h3.93l0.44-2.62l-1.53-1.75h-0.88l-1.09,2.19h-0.88l-1.31-1.31v-1.09l-1.97-2.4h-0.66V410.67z M849.64,415.05
		l-3.93,4.37l-3.28-0.22l-1.31,1.31l-0.22,1.31v1.31l2.62,0.44l0.87,0.66h1.31l1.53-1.97l1.09,1.09v2.4l1.53,0.44l2.84-2.84
		l1.97,1.09l2.62-1.09l0.66,0.44l1.53-0.87l-0.22-2.4l-2.4-0.22l-1.31-1.75l-2.41,0.44l-1.31-0.87v-2.84l-1.09-0.22H849.64z
		 M849.64,411.11l-1.31,1.31l1.09,1.31l1.75,0.44l0.88-0.66v-1.09l-0.22-1.09l-1.09-0.22H849.64z"/>
	<path class="st0" d="M154.47,547.31l-2.62,2.84l0.22,6.78l0.66,0.88l4.81,1.75h1.09l1.97-1.53l0.44-3.5l5.25-2.62l0.87-2.84
		l1.97-2.62h5.03l3.5,1.31l3.72-0.87l1.31,0.87v1.53l-1.31,1.53l-5.03-0.66l-1.31-1.09h-0.66l-5.47,3.72l-1.53,1.09l-2.4,3.5
		l1.09,2.19l1.31,0.66l6.12-2.4h1.53l1.09-2.19h1.75l0.44,1.75h2.84l1.97-2.62l2.4,2.62l1.09-0.66l1.31-3.93l0.44-1.97l-2.84-2.62
		l1.75-1.31l6.56,0.66l2.62-0.22h5.25l13.12,0.44l14.43-0.44l24.05,0.88l4.37,1.31l6.12-0.66l7.65,2.84l6.56,3.93l4.81,3.06
		l4.81,6.12l1.75,5.03l1.09,7.87l-1.09,9.84l-1.31,5.9l-3.06,6.34l-7.65,7.65l-8.53,5.68l-7.43,2.62l-0.87,1.53l1.53,1.53l3.94,0.66
		l10.49,3.06l7.21,3.72l9.4,8.09l1.97,1.97l1.75,6.34l0.87,1.75l0.22,5.03l0.44,5.03l-1.09,3.72l-1.09,7l-3.06,7.21l-7.43,8.53
		l-9.18,6.34l-7,3.06l-6.12,0.87l-4.37,1.31l-7,0.44l-7,1.31l-3.94,0.22l-16.18-0.87h-27.11l-2.84-1.31l-1.75,1.53h-8.96
		l-24.48,0.44l-7.21,0.44l-1.75-1.75l0.44-2.4l1.53-3.93l-1.53-3.06l-0.87-5.9l1.09-2.41l6.56-0.44l5.47,1.75l1.09-1.09l2.19-4.15
		l0.22-10.93l0.87-5.25l0.44-14.43v-1.75l-0.22-33.45l-0.22-33.23l0.87-2.19l-1.09-3.5l-1.53-1.53l-5.03-0.66l-5.68-0.66l-4.59,1.53
		l-1.31-1.31l0.87-7.43l-1.31-2.62v-5.68l0.87-1.75h3.28L154.47,547.31z M163.21,547.09l-0.22,1.75l-0.87,2.4l-1.31,0.44l-1.75-1.75
		v-0.66l2.4-2.4h0.87L163.21,547.09z M161.46,685.69l1.09,0.22v-1.31h-1.31L161.46,685.69z M175.67,637.37l0.87,0.44v2.84l1.75,1.75
		v1.53l-3.5,2.19l-1.31,2.4l1.09,1.75l0.66,3.5l-1.53,2.62l-0.22,6.56l0.44,1.97l1.31,0.44l1.75-0.87l-0.44-4.15l1.31-1.97h1.09
		l4.15-3.93h3.06l2.19,1.09l1.31-1.09l1.31-4.37v-1.75l1.31-3.06l-0.44-2.19l-2.19-1.31l-3.06,2.62l-1.53-0.22l-1.53-2.84v0.87
		l-0.22,1.09l-1.53,0.22l-0.66-2.41v-2.18l0.66-2.19h-5.68L175.67,637.37z M175.01,667.54l-1.31,0.87l0.66,1.31h1.31v-1.75
		l-0.44-0.22L175.01,667.54z M173.92,627.75v2.19l1.31,2.62h1.09v-6.12h-0.44L173.92,627.75z M174.8,600.87l-0.44,5.9l2.19,1.97
		v1.97l0.87,2.4l-1.53,2.62l0.66,1.53l4.59-0.22l1.09-2.19l1.75-0.66v-1.75l-1.09-2.19l-3.06-0.22l-0.66-2.19l2.62-4.37l-0.66-2.19
		l-0.87-1.09l-1.75,1.75h-1.53l-0.44-1.75h-1.75V600.87z M175.67,588.62v2.41l0.87,1.75h1.75l2.62-2.19v-1.75l-3.5-2.19h-0.44
		L175.67,588.62z M176.11,595.62v1.53l1.53,0.66l1.09-1.75l-0.87-1.53h-0.66L176.11,595.62z M178.95,681.75l1.97,1.53h1.75v-1.31
		l-1.97-1.75h-1.09L178.95,681.75z M182.01,665.14v5.25l0.22,2.62v2.84h0.87l1.75-1.97l2.19,1.53l1.31-0.44v-1.75l-1.09-0.88
		l-2.19-0.22l-0.22-2.4v-2.62l2.19-1.31v-1.31h-1.53l-2.62-0.44L182.01,665.14z M182.67,560.2l1.97,1.53l1.53,1.31l-0.44,1.31
		l-1.75,0.44v1.31h1.75l2.62-1.31l0.87-1.53l-0.87-1.75l-2.84-2.84h-2.4L182.67,560.2z M183.1,591.9l0.22,1.53h2.19l1.75-2.84
		l-1.31-1.31L183.1,591.9z M185.07,574.85l-1.75,1.31l0.88,1.53l1.53,0.22l2.19-0.44l-0.22-2.4l-1.31-0.22H185.07z M192.28,660.55
		v1.31l1.09,1.53l-0.87,3.5l-2.4-0.22v1.31l2.19,1.75l0.87-0.44l2.62-4.15v-1.31l-1.75-1.75L192.28,660.55z M200.59,671.91l0.22,3.5
		l-0.87,0.88l-1.53-1.31v-1.97l-1.09-1.09h-3.06l-0.87,0.66l-1.53,2.19v4.59l-0.87,0.44v0.87h2.19l1.09-1.31l1.75-0.87l1.97,1.09
		l1.75-1.97l0.22-1.09l1.97,1.09l1.09-0.88l1.09-3.72v-2.19l-1.09-1.09h-1.09L200.59,671.91z M201.03,622.51l-1.31,2.19l-6.12,0.44
		v1.09l1.31,3.5v1.31l-1.31-2.4h-1.75l-0.44,1.31v2.41l0.66,1.09l6.12-0.22v-4.37l1.75-0.22l2.4-2.62l-0.22-3.28h-0.44
		L201.03,622.51z M195.78,615.51l-3.5-0.66l-0.66,1.75l1.09,1.53v3.06l5.47,2.62l0.44-0.44v-2.19l0.22-1.97l0.66-2.4l-2.19-2.19
		h-1.09L195.78,615.51z M191.85,551.24v1.31h1.31l-0.22-1.09l-0.66-0.22H191.85z M208.02,567.64l-0.22,5.25l-0.44,5.25v14.43
		l0.22,14.43l-0.87,2.19l-1.31-1.97l-3.94,0.66l-0.22-3.06l-2.84,0.22v-1.53l1.31-1.75v-1.31l1.75-2.41v-1.75l-1.53-3.06l-0.88-0.44
		l-4.37,0.88l-0.66,0.66l0.87,2.19l0.87,4.37l0.22,1.75l0.44,1.97h-2.4v3.06l-1.97,1.09l0.66,1.53l1.31,0.66l2.62-1.53l1.31,2.62
		h1.97l1.97-1.75l0.44,3.06l-0.87,1.31l0.44,4.15l0.87,1.09l4.37-4.37l-0.44-2.19l2.19-0.88l1.75-1.75l5.47-0.44l14.87-0.66
		l7.65-2.4l4.15-2.19l5.25-5.9l1.75-2.4v-12.02l1.53-2.62L250,579l-2.84-4.15l-5.9-5.25l-4.15-2.19l-5.25-0.87h-3.5l-10.93,0.44
		l-1.09-1.09l-6.12-0.44L208.02,567.64z M194.47,577.91l-0.44,0.88l0.44,3.06l-1.75,0.66l0.44,1.75v2.41l3.72,1.75h1.53l-0.22-2.84
		l-0.22-2.62l-1.97-1.53v-3.28l-0.66-0.22H194.47z M194.47,684.16l-1.31,2.62l1.31,2.19H196l1.75-1.75l-0.22-1.53v-1.31l-1.97-1.97
		h-1.09V684.16z M194.03,647.65l0.44,5.25l0.22,1.31l0.22,1.53l1.31,0.88l0.66-1.31l2.84,0.44l1.31-3.06v-1.97l-1.75-1.53
		l-3.72-0.87l-0.87-0.22L194.03,647.65z M200.15,550.37l-2.4-0.44l-1.97-0.44l-1.31,2.84l1.31,4.59l2.4,0.88l1.31,1.31l1.97-1.97
		l2.19-1.53v-2.19l2.4-0.87h3.72l0.44-1.31l-0.66-0.44h-1.75l-3.5-1.75h-2.19L200.15,550.37z M194.47,638.68l0.22,1.53l1.53,0.22
		v-3.06h-0.87L194.47,638.68z M198.62,659.23l-1.75-1.75h-1.09v2.19l1.75,1.09v2.19l1.53,1.53h1.53l1.31-2.19l-0.44-2.4l0.87-1.53
		l-0.44-1.31h-1.75L198.62,659.23z M198.19,563.05l-0.66,0.66v0.66h1.31v-0.88l-0.44-0.22L198.19,563.05z M208.24,617.92l-1.09,3.93
		l1.31,3.06l-0.44,3.06l-0.87,6.56v19.67l0.44,19.24l1.31,1.97l6.34-0.44l15.74-0.44l9.62-1.31l6.34-1.31l4.37-2.4l4.37-4.37
		l1.75-3.72v-9.62l0.22-9.84l-1.75-2.62l-1.75-1.75l-1.31-1.75l-2.84-1.97l-7.43-3.93h-3.28l-3.06-1.53h-18.36l-4.81,0.44
		l-3.06-1.75l-0.22-1.09v-1.09l1.31-1.09v-2.84l-0.87-0.88l1.09-2.4l-1.09-1.31h-0.66L208.24,617.92z M219.83,685.9v1.31l0.87-0.22
		v-0.88l-0.44-0.22H219.83z M247.37,610.7l0.87,1.75l2.4-0.22l0.22-1.09v-0.88l-1.53-1.75h-0.66L247.37,610.7z M261.58,580.97
		l1.75,2.41l1.31,0.22l0.66-1.97l-1.31-1.97h-1.31L261.58,580.97z M264.43,673.22l-0.44,0.88l0.66,2.62l1.97,1.53l0.87-1.09
		l-1.31-3.72l-0.87-0.22H264.43z M264.43,663.83l1.09,1.53h2.4v-2.19h-3.06L264.43,663.83z M269.23,645.02l-0.44,2.4l-3.06,1.97
		v0.87l0.22,0.87l3.94,1.31l2.4,1.31l1.09-0.66l0.44-2.19l0.22-2.19l0.44-0.88l2.84,0.44l1.31,1.09l1.09,2.84h1.09l1.09-1.09
		l1.31,1.53l1.53-0.22l0.22-1.97l0.44-1.97l-1.31-1.97l-2.84,0.44l-1.09-1.31h-3.93l-3.06-2.62h-0.66L269.23,645.02z M266.61,581.41
		l1.31,1.31h1.09l1.31-0.87l1.75,1.31l1.97-1.31v-2.19l-1.09-0.88l-1.97,1.31l-3.06-1.31h-1.31V581.41z M272.73,583.81l-1.31,0.87
		v0.88l0.22,0.88l1.53,0.87l1.75-1.75v-1.53h-1.09L272.73,583.81z M273.83,587.53l-1.09,1.09v0.88l0.87,1.09l1.31-0.44v-1.75
		l-0.66-0.44L273.83,587.53z M285.85,660.55l0.22,1.09h1.09v-0.87l-0.66-0.22H285.85z"/>
	<path class="st0" d="M450.9,677.6v15.96l-0.87,0.44l-38.48,0.44l-10.93,0.88l-2.19-1.53l0.66-6.78l0.66-4.81l0.87-3.06l2.62-1.09
		l1.53-3.72v-9.18l-1.75-1.53l-2.62,1.31l-0.44,1.09l0.66,1.75l-2.19,3.28l1.53,1.75l-2.84,2.4v1.75l-1.31,1.97h-1.09l-0.87-2.62
		l-1.97,0.44l-1.75-0.88l-2.19,1.75h-1.09l-3.5,2.62v4.59l1.53,0.87l2.4-2.62l2.4-0.66l0.44-1.75h1.97l1.09,1.09v1.53l-4.81,3.72
		h-1.31l-2.19,3.06l-9.62,5.03l-1.53-0.88l-4.37,2.84h-11.59l-1.09,0.66l-6.78-1.09l-4.81-2.4l-3.94-1.53l-5.47-4.37l-1.31-2.41
		l-0.44,0.44l-2.84-3.06l-1.53-3.72v-1.75l-3.72-10.93l-0.22-11.81l-0.44-46.13l-1.53-1.53l-1.75-0.66l-1.97-1.75l-4.15,1.97
		l-3.06-0.44l-1.09-1.53l-0.22-2.62v-2.84l0.88-0.88l-0.88-0.87v-8.31l1.09-0.88h44.38l0.44-0.44h4.15l1.75,2.19l0.22,13.77l-0.44,7
		l-0.22,14.86l-0.44,14.86l0.87,18.58l2.19,6.56l3.28,2.4l3.72,3.06l6.78,0.87l5.9,1.09l2.4-1.09l1.75-3.93l0.87-0.44l1.97,1.53
		l0.66-1.31l0.44-3.5l3.72-9.18l0.87-7.43l-0.22-11.59l0.44-13.77l0.22-13.55l-3.28-3.06l-3.28,0.88l-6.12-0.22l-1.09-1.09
		l-0.22-15.96l2.19-1.75l1.53,0.44l14.21,0.88l12.02-0.22l3.5-0.22l16.18-0.22l1.09,1.53l0.87,3.28l-0.87,2.84l0.87,6.78v13.77
		l-0.66,17.49l0.22,1.31v1.31l-0.22,14.21v13.99l0.87,7.87l1.31,2.4l3.72,1.09l4.37-0.88l1.75,0.66h2.62L450.9,677.6z M328.7,598.02
		l1.09,1.31h1.09l1.31-1.09l1.31-0.66h0.44v1.97l2.62,2.4l0.44,2.62l-0.44,2.4h-1.53l-2.4-2.4v3.93l0.44,1.97l1.75,0.44l1.75-1.09
		l2.19-4.81v-1.31l1.75,2.4h1.75l0.66-1.53l2.62-3.28l2.4,1.75h5.03l1.75,3.06l0.87-0.66l-0.44-1.31l-0.22-1.53l2.19-2.4v-0.87h1.97
		l0.87-2.19l-0.87-0.88l-1.75,0.88h-1.53l-0.44-5.03h-0.66l-2.4-0.22h-2.4l-1.53,0.88l-2.62-0.66l-1.75,1.53l-5.47,2.19l-3.5,0.66
		l-0.88,0.66l-1.53-1.75l-2.62-2.4l-0.44,0.88h-4.59l-3.72,5.03v0.66l-1.75,2.19v0.66l0.66,1.09l2.4-1.09v-0.66h1.31l1.53-1.75
		L328.7,598.02z M328.26,603.05l-0.87,2.19v2.41l2.62-3.06v-1.53H328.26z M331.1,620.76l3.5,0.66l0.22,0.44l-1.31,2.19l0.44,2.84
		l0.66,0.88l2.4-3.06l1.75,3.94v1.53l-0.66,0.22l-3.72,4.37l0.87,1.09h1.09l3.5,3.28l1.09-1.53l-0.66-1.53l0.44-6.12l1.31-2.19
		l0.66,1.97l-1.31,2.62l0.44,0.87H344l1.97-2.62l2.4-2.84v-0.66l-3.94,0.22l-1.09-1.09l2.62-2.19l-0.66-0.88l-3.28,0.44l-2.84,1.09
		L337,623.6v-1.75l1.75-0.44l3.28,1.31l1.31-0.44l-0.44-5.68l0.44-0.87l4.15,1.09l-0.44,1.75l1.09,1.53l2.19-0.22l0.44-2.4
		l-2.84-1.09v-1.09l1.75-1.53v-1.53l-2.4-3.06h-1.09l0.22,1.97v1.97l-1.31,0.88h-0.66l-1.75-4.15v-1.97l-0.44-0.44l-0.66-0.44
		l-1.97,0.88v0.87l1.75,1.97l-0.44,2.84l-0.22,3.06l-2.4,3.5h-0.87l-1.53-4.59l-1.53-0.87l-1.31,0.66v2.62l-1.97-0.22l-0.87,1.53
		L331.1,620.76z M333.72,633.66l-0.87-1.53h-0.44l-0.66-0.22l-0.44,1.31l1.31,1.53L333.72,633.66z M358.43,679.78l-1.09-1.75
		l0.87-1.75l-0.87-2.19l-2.84-1.31v-2.41l-0.87-1.09l-0.22-1.53l-0.44-1.75h-0.44l-0.44-0.22l-1.53,2.62v2.62h-2.19l-0.87,2.4
		l-2.62,2.4l0.66,1.97l-3.28-2.62l-0.44-1.53l-1.97-0.44l-3.06,0.66v1.97h-1.53v-0.66l0.87-0.87l-3.5-1.97l-1.31,0.44v1.75
		l1.75,2.19v2.62l1.31,1.09l3.06-1.53l1.75,1.97v2.19l1.53,1.09V687l3.06-0.22l2.84,0.22h1.31l0.66-0.88l-1.53-2.84l1.09-3.28
		l0.66-0.88l2.4,2.41l3.06,1.53l0.87-1.53h1.09l0.87,1.53l0.87-0.66L358.43,679.78z M336.35,656.83l0.66-0.22v-1.97l-2.19-3.28
		h-0.87l-0.87,2.84l-1.09,1.53l2.19,1.75L336.35,656.83z M333.72,647.43l-1.53,1.53l0.22,1.75l2.4,0.22l0.44-2.19l-0.44-1.31H333.72
		z M334.38,662.29l1.97-1.75l-1.31-1.31h-0.88l-0.66,0.44v2.62H334.38z M333.51,664.92v1.75h0.87v-1.75H333.51z M341.81,644.59v1.09
		h0.87l-0.44-2.62l-2.84-2.19l-0.44-0.22h-0.22l-0.44,1.31l0.87,1.31l2.4,0.22L341.81,644.59z M342.25,654.21l2.84,1.09l1.09-1.09
		l-0.87-2.4h-1.53l-1.53,1.53V654.21z M349.46,600.21l-0.87-0.87l0.44-1.31h2.4l2.19,1.53v1.53l-0.87,0.66L349.46,600.21z
		 M350.99,630.38l-0.44,1.53l0.44,0.66l1.09-1.09L350.99,630.38z M354.71,620.54l0.22-0.22l0.22-1.53v-1.53l-0.87-0.22h-0.88
		l-1.09,1.75l0.66,1.31L354.71,620.54z M354.93,685.47h-0.87l-0.44,1.53l1.75-0.88L354.93,685.47z M353.84,651.8l0.87,0.44
		l0.87-0.88l-0.66-0.87h-0.66L353.84,651.8z M361.27,665.79l-1.53-0.88l-1.97-0.22l-1.75-0.22l-1.31,1.97l-0.44,1.97l0.66,2.19
		l1.31,0.44l1.31-0.44l1.09-3.06l2.62-1.09V665.79z M361.27,603.71l-1.09-0.66h-2.4l-1.09,1.53l2.19,1.53l2.19,0.22L361.27,603.71z
		 M371.54,682.19l1.97-1.31v-1.53l-1.75-1.75h-0.88v1.09l-2.84,1.75l-0.44,2.19l1.53,2.19L371.54,682.19z M374.17,685.9l-0.22-1.09
		l-0.22-1.97h-1.09v3.06H374.17z M400.84,594.96l-0.66-1.09h-1.53L398,595.4v1.53h1.75L400.84,594.96z M402.15,613.98l3.06,1.97
		v3.06l-1.31,0.44v1.31l1.31,0.88l2.19-0.44l2.19-3.5l3.06-1.31l-0.44-1.75l2.62-3.94l1.31-1.09l1.31,0.66l-0.44,1.31l0.87,1.75
		l3.06,1.75l3.28-2.19h1.09v-2.84l0.22-7.87l-1.53-1.97l2.4-2.19l1.53-2.84l1.31,1.53v1.75l-1.31,0.44v1.53l1.75,1.09l2.62-1.53
		l1.31-2.4v-1.31l-2.62-2.4l-2.19,0.66l-5.25-1.09l-4.37,4.59l-2.4-1.53l-1.09,0.44l-0.44-0.66l2.19-2.4l-0.44-0.44l-6.34,0.44
		l-3.5-0.44l-1.97,1.53l-1.75-1.09h-0.66l0.22,1.53l0.22,1.31l1.75,0.44l3.72,3.06l-0.22,1.97l-0.44,2.19l-1.09,1.75l-1.75,0.66
		v0.88l0.22,0.87l-3.5,0.87l-0.87,1.75L402.15,613.98z M426.85,659.23l1.53-1.09l-0.87-2.4l1.09-3.72l1.53-0.88v-5.25l-1.31-1.53
		l0.87-2.4l-0.87-1.75h-0.87v-1.53l1.97-1.97l-1.97-1.75l-3.06-0.66l-3.06,0.66l-1.09,1.31l0.66,2.62l-1.75,1.09l-1.97-0.44v-1.31
		l0.66-3.5l-3.5-2.4l-4.15,0.87l-1.97-1.31h-1.31l-1.31,1.75v1.53l1.75,1.97l-1.31,1.09v3.28l-2.62,0.88l-0.87,4.15l0.44,2.19
		l2.4-2.62h2.19l0.66,2.62l-1.97,1.75l-2.84-1.31l-1.31,3.28v2.84h0.66l0.44-1.09l2.4,0.87l0.87,3.06l0.87,0.88h4.37l1.09,2.84
		l4.15,2.19l1.53-1.09l1.31-2.62l1.53-0.88l2.19,1.53v2.19h1.75l0.66-1.09l-0.22-2.84H426.85z M408.71,623.82h-1.75l-0.44,0.66v5.68
		l1.09,1.09l1.75-0.66l0.66-4.59L408.71,623.82z M410.46,664.7l-1.09-1.09h-1.53l-1.31,1.53v0.88l1.75,1.97l-0.87,2.84l0.87,0.87
		l1.53-1.97L410.46,664.7z M409.14,679.35h-1.75v0.88h1.75V679.35z M412.42,638.9l1.09,1.31l-0.22,1.97l-1.53,0.44l-1.09-2.19
		l1.09-1.53H412.42z M413.74,688.53l-0.44-1.31h-0.66v1.31l0.66,0.44L413.74,688.53z M414.39,601.52l-0.66-0.87l0.66-1.09l0.44,0.22
		l0.66,0.22v0.66l0.22,0.87H414.39z M417.45,617.7v-1.31l-2.19-1.31h-0.87v1.53l1.75,1.53L417.45,617.7z M426.63,678.47l-0.44-0.87
		h-1.31l-0.44,1.97l-0.87-0.66l0.44-4.81h-1.31l-0.44,1.53v1.53l-1.31,0.66l-1.75-2.19l0.44-2.4l-0.44-1.75h-0.87l-1.09,1.53
		l-2.84,1.09l0.87,1.75l1.09,0.66l1.09,1.97l-0.87,1.75l-1.31,1.09v2.19l1.97,2.62l1.97-1.09l2.19,1.97l1.75-1.31l0.87-3.06
		l0.44-2.19l1.75,0.44L426.63,678.47z M416.58,624.04l0.87,0.88l0.87-0.88l0.22-1.97l1.53-3.5h-0.22l-0.44-0.22l-2.19,0.22
		L416.58,624.04z M421.17,647.43l0.66,1.09v0.66h-1.53l-2.84-1.97l-0.87-1.53h0.87L421.17,647.43z M418.33,606.33l-0.44-0.88
		l2.4-3.5h0.44l1.09,3.06l-1.09,1.31H418.33z M423.14,666.01v-2.4h-0.87v1.09L423.14,666.01z M423.57,643.49l-0.87-1.09l0.44-0.88
		h1.31v0.66L423.57,643.49z M425.32,648.3l0.44,0.87l-0.87,1.31h-1.31v-1.75l0.66-0.44H425.32z M428.6,620.76l2.84-3.93v-7
		l-1.31-0.44v-3.06l-0.44-0.22l-0.22-0.22l-1.75,1.75l0.22,3.28l-1.75,1.53v1.09l1.75,1.75v1.97l-0.87,0.44l-0.44-0.87h-1.75
		l-0.66,1.09l0.66,2.62l-0.44,3.28l1.97,1.31h3.06l1.09-1.09v-1.31L428.6,620.76z M435.81,685.03l-1.75-1.97l-0.44-3.72l-0.87-0.44
		l-5.25,5.47l0.87,1.53l3.06,3.06h3.06l1.31-1.53V685.03z M442.37,687l-1.75-2.19v-0.88l-1.31-1.53l-2.62,0.66l-0.44-1.53h-1.31
		v1.75l1.09,0.66h0.87l0.22,1.09l0.22,0.87l3.28,3.28l1.75-1.09V687z"/>
	<path class="st0" d="M575.51,541.4l1.75,1.75l-0.22,14.21l0.22,33.88l0.44,16.4l-0.88,23.17l-0.44,8.96l-0.22,8.96l1.09,3.93
		l0.22,4.81l0.22,5.03l-1.31,2.84l0.44,1.75l-1.31,3.06v2.41l1.09,1.09h1.97l2.19,1.97l0.88,3.06l-2.41,3.28l1.09,2.84v1.97
		l1.97,1.31l3.72-1.31l1.97,0.66l0.44-3.72l0.22-3.72v-3.93l1.09-1.09h1.97l1.09,1.75l-0.66,5.25l-0.44,5.25v6.56l-0.66,0.44
		l-13.99,0.22l-10.49-0.44l-15.96-0.22l-8.74,0.87l-1.09-0.87v-2.19l0.44-11.59l-1.09-3.93l-1.53-0.88l-2.84,3.06l-4.81,8.09
		l-4.59,4.15h-1.09l-4.37,3.5l-5.25,2.4l-6.78,0.88l-13.34-1.09l-6.99-1.53l-7-3.5l-6.78-6.78l-5.03-8.53l-1.75-3.72l-0.66-3.28
		l-1.75-3.06l-1.09-8.53l-1.53-9.84v-6.56l0.44-12.24l1.75-6.56l1.97-6.12l2.62-7.65l2.19-3.5l1.97-4.81l2.62-1.09v-1.09l5.68-5.47
		l2.19-0.44l3.28-2.19l3.93-1.31l3.28-1.31l5.25-0.44l0.44-0.44l7.21-0.87l7.65,0.87l4.81,1.31l4.37,2.84l3.94,2.4l2.18,1.53
		l2.84,4.81l2.62,2.62l1.09,4.37l2.41,4.59l-1.53,1.75v0.88l0.66,0.44l3.72-1.75l-0.44-6.34l-1.31-3.5l-0.87-3.06L539,585.13
		l0.22-22.52l-1.53-2.84l-1.97-1.09h-9.84l-1.31-1.09v-16.83l5.9,0.66h12.68l4.81,0.66l3.28-1.31l10.27,1.09l2.19-1.31h8.74
		L575.51,541.4z M469.48,659.67l1.53,2.62h1.53l3.06-2.62l-0.44-0.44l-5.25-0.44L469.48,659.67z M472.1,618.79h1.53v-1.31h-1.53
		V618.79z M474.07,670.16l1.09,0.88l1.09-0.44v-1.75h-1.75L474.07,670.16z M475.6,619.45l-0.66,5.25v6.34l0.87,1.75l2.62-0.44
		l1.31-0.88v-1.75l-1.75-1.09v-1.53l2.4-0.22l0.22-1.97l-1.53-0.66l-1.53,0.88l-1.09-1.53l0.87-1.53l1.97-1.75v-1.53l-1.53-0.44
		h-0.66L475.6,619.45z M477.79,642.4l0.66,2.4l-1.53,1.09l1.09,2.18h0.66l2.19,1.09l1.53-0.44v-2.19l-2.62-1.97l0.87-1.53
		l-1.09-1.53h-0.44L477.79,642.4z M479.97,652.24l-0.22,2.4v2.62l-0.44,11.15l-1.97,4.15l0.66,1.97l1.09,0.44l1.97-1.53l-1.09-3.28
		l1.31-1.53l0.87-3.06l-0.44-2.19l1.97-1.75v-0.66l-2.4-1.09l-0.44-4.15l2.4-1.53v-2.4l-1.09-1.09h-1.09L479.97,652.24z
		 M479.76,598.68l-1.09,0.44v0.88l1.75-0.44l0.44-1.09h-0.66L479.76,598.68z M481.94,669.29l0.87,2.19v4.37l1.09-0.22l1.31-3.06
		l-0.44-2.62l-0.87-1.09h-1.53L481.94,669.29z M483.91,683.06v0.44l2.19,1.75l1.53-0.44v-1.53l-1.97-0.22H483.91z M484.35,598.02
		v1.31H485l1.97-1.31v-0.87h-1.09L484.35,598.02z M485.88,609.39l1.97,1.09l1.97,1.75l0.88-1.09v-2.41l-1.09-1.09h-3.72V609.39z
		 M488.5,598.9l-1.31,0.88l0.22,0.88l0.22,1.09l1.09,0.44l0.44-1.97l-0.44-0.66L488.5,598.9z M489.37,671.69v1.97l1.31,0.66
		l0.87-1.31l-1.09-1.97h-0.44L489.37,671.69z M489.81,649.62l0.88,1.53h0.87l0.88-1.31l-1.09-2.19h-0.66L489.81,649.62z
		 M495.93,627.1l-2.19,0.88v2.4l-1.31,1.31l-0.44,2.4l-0.87,1.31l0.44,1.75l1.31,0.44l1.75-0.87v-1.75l0.22-1.97v-0.87l-0.66-1.97
		h2.19l0.44,0.88h1.75l0.66-0.88l-1.09-1.09v-3.72h-1.31L495.93,627.1z M491.56,641.09l0.22,1.53l1.97,0.44l0.87-0.88l-1.75-3.5
		L491.56,641.09z M492.87,658.14l-0.44,1.75l-0.88,1.97l0.88,1.75h1.75l-0.22-2.62v-2.41l-0.66-0.22L492.87,658.14z M493.09,614.64
		l0.66,1.53h2.62l0.66-1.53l-0.88-1.31l-1.31-0.44L493.09,614.64z M495.93,647.87l1.31,1.31l1.09-0.87l-0.66-1.53h-1.31
		L495.93,647.87z M496.81,634.97l0.44,0.88h1.31l0.44-0.66l-1.09-1.09L496.81,634.97z M502.05,597.37v1.53l-1.31,1.09v2.62
		l2.19,2.62l0.66-0.66l0.22-7.87h-1.09L502.05,597.37z M516.7,610.27l-2.84,0.22l-4.37,2.19l-4.81,4.59l-1.31,2.84l-0.88,5.9
		l-1.31,4.15l0.44,8.96l0.22,9.62l0.87,3.93l-0.22,2.84l1.31,7.21l2.19,3.5l8.96,7l2.84-0.44l2.19,1.75h1.31l4.81-3.5l6.78-3.28
		l1.97-3.06l2.84-5.25l1.75-9.4v-4.37l0.87-5.47l-1.31-6.34l-0.22-10.49l-3.28-6.12l-2.19-1.97l-3.06-2.19l-4.37-3.28l-3.5-0.44
		l-1.97,0.88l-0.88-0.66h-0.44L516.7,610.27z M508.83,685.03l1.09,1.53l-1.09,3.06l1.31,2.19l2.4,0.66l1.09-1.75l2.19,1.31
		l1.53-1.09v-1.31l-1.31-0.44l-1.75,0.88l-1.53-3.06v-1.53l-1.97-1.97h-1.31L508.83,685.03z M514.95,681.31v3.06l1.31,0.66
		l2.84-1.97v-1.97l-1.09-1.09h-1.53L514.95,681.31z M516.92,687.65v1.09l2.84,1.75l0.88-1.09l-0.44-1.75l-0.87-0.44L516.92,687.65z
		 M525.88,678.03l-3.5,0.87l-0.87,1.31l2.4,3.72h2.62v0.88h1.31V680l1.97,1.31h0.66l1.31-1.31l-0.66-1.31h-4.37l-0.44-0.44
		L525.88,678.03z M523.48,684.37l-0.44,0.66v1.09h1.75l-0.22-0.66v-0.66l-0.44-0.22L523.48,684.37z M543.37,629.5v1.09l1.97-0.22
		l0.22-0.87v-0.66h-1.53L543.37,629.5z M543.81,565.23l0.87,1.31l0.88-0.66l-0.44-1.31h-1.31V565.23z M544.46,548.62l0.66,1.09h1.75
		l0.66-1.75l-0.87-0.88L544.46,548.62z M544.68,623.82l1.31,1.09l0.66-1.31l-0.66-1.31h-1.31V623.82z M545.78,568.29l-0.66,0.44v2.4
		l0.88,0.66l-0.44,1.97l1.31,1.09l2.19-0.88v-0.87l-2.19-0.88v-3.06l-0.66-0.44L545.78,568.29z M549.05,641.31v0.66l-3.06,3.06v3.06
		l1.31,1.31h1.75l1.09-1.31l1.97-0.66l1.31-2.84v-2.18h-2.62l0.44-1.09l1.97-0.22l0.44-1.31l-1.53-2.19h-1.53L549.05,641.31z
		 M547.31,633.22l0.44,0.87h1.75l1.31-1.97v-1.97h-0.66L547.31,633.22z M551.9,679.78l-1.09,1.09v1.31l-2.19,2.41l0.44,0.87h2.62
		l1.31-0.44v-3.72l-0.44-0.88L551.9,679.78z M555.39,658.14l-2.84,1.31l-0.88,1.31v4.81l-2.62,3.28v1.09l2.62,3.06v1.31l1.53,1.31
		l1.53-1.97v-4.15l-1.31-1.97l1.97-2.19l0.22-2.84l0.44-2.62l1.75-3.5l-0.44-1.09h-1.31L555.39,658.14z M551.02,646.34l-1.09,1.09
		l-0.44-1.53l0.66-1.53l0.44,1.09L551.02,646.34z M549.93,603.49l1.75,3.06l3.28,1.97l1.09,2.62v1.97h2.4l0.44-1.31l-1.97-3.06
		l0.22-1.31v-1.31l-1.09-1.53h-2.84l-0.66-1.97l0.22-2.4h-1.53L549.93,603.49z M549.93,618.35l1.31,2.19l0.88-0.44v-2.62h-1.75
		L549.93,618.35z M551.68,584.47V586l1.09,1.09h1.53l1.09-2.19l-0.66-2.19h-2.19L551.68,584.47z M555.39,617.04l-1.53,4.15v1.09
		l-0.22,0.87l0.87,0.44l2.19-3.28l-0.44-3.06l-0.44-0.22H555.39z M554.52,568.51l-0.66,2.62l1.31,1.09l1.75-1.31h1.75l0.44-1.53
		v-1.09l-3.5-1.09v-2.62h-1.09V568.51z M556.27,586.22l-1.09,1.75l0.66,1.75l1.31-0.22l0.87-1.53l-0.87-1.53l-0.44-0.22H556.27z
		 M558.24,659.89v1.75l-0.22,1.75l2.19,0.22l-0.44,4.37l-3.06,1.53l-1.31,2.4l1.09,1.75l0.44,2.62l0.22,2.62l2.84,2.62l-0.88,0.44
		l0.22,0.87v0.66l1.53,2.19l0.87-0.44l3.28-1.97v-0.88l-1.97-2.62h-1.97l-0.44-5.25l3.5-2.62v-3.28l-2.19-1.75l1.09-3.5l0.22-0.88
		v-0.66l-3.28-3.72v-0.66h-0.88L558.24,659.89z M556.05,640.65l1.09,2.41l-1.31,4.37l1.97,1.31v1.53l-1.75,2.19v0.88l1.75,1.09h3.06
		l1.97,2.62h1.31l2.62-1.97v-1.09l-2.19-1.97l-1.53-3.94l1.53-1.53v-1.53h-0.66l-1.53,0.88l-1.53-1.31v-2.18l-2.19-4.81h-1.09
		L556.05,640.65z M560.2,576.6l-1.09,1.75v1.31l1.31,0.44l1.97-0.88l-0.22-2.4l-1.09-0.22H560.2z M562.83,620.32l-1.97,2.4v1.75
		l1.53,1.31l-0.66,1.97l1.31,1.09l1.09-1.75v-1.31l0.87-3.5l3.28,0.22v-0.66l0.22-0.88l-4.59-1.31L562.83,620.32z M564.36,609.83
		l-1.09,2.84v1.97l1.31,1.75l0.44-1.31l2.19-2.19v-1.53l-0.88-2.41h-1.31L564.36,609.83z M563.26,629.72v1.75l0.66,0.44l1.53-0.66
		l-0.22-1.31l-1.09-0.22H563.26z M568.51,582.28v2.19l-2.62-1.09l-0.66,1.53l1.09,2.62l-0.88,0.66l-0.87,1.75l1.31,2.4l-2.4,1.75
		v2.62l2.4,3.94l-0.22,1.97v1.97l-1.31-0.44l-0.44,1.31l1.09,1.75h1.31l2.62-2.19v-5.03l-0.87-3.28l1.31-2.4v-2.19l-1.31-1.31
		l-0.44-3.06l2.4-0.22l1.97-2.19l0.44-2.19l-0.87-2.19h-1.09L568.51,582.28z M565.45,663.39l-1.09,4.15l1.53,1.31l0.44,6.56
		l0.44,0.88l3.72,0.87l1.75,2.41l1.53-0.66l-0.22-3.28l-2.4-0.22l-0.88-2.4h0.22l2.18-1.53l1.09-2.62l-1.31-3.93l-1.97-0.22
		l-1.53-2.62l-1.75-0.44L565.45,663.39z M565.89,562.83l0.66,1.53l1.75,3.5h0.44l-0.44-6.12l-0.87-1.53h-1.53V562.83z
		 M567.86,547.96l-0.66,1.31l0.44,1.53h1.75v-2.62l-0.88-0.22H567.86z M567.2,639.78h0.87v-3.93h-0.87V639.78z M567.64,656.39
		l1.09,1.09l0.66-0.66v-1.09h-1.75V656.39z M568.95,668.85h-1.31v-0.87l0.44-0.44h0.87V668.85z M570.04,649.62l-1.53,0.87v1.75
		l1.31,2.62h0.66l1.53-1.97v-2.41l-1.09-1.09h-0.44L570.04,649.62z M571.13,657.05v1.53l1.31,1.53l2.19-1.31v-1.31l-1.75-0.87h-1.31
		L571.13,657.05z M572.01,660.76l-0.66,1.31l0.22,0.88l0.22,0.66l1.09,0.44v-2.62l-0.44-0.22L572.01,660.76z M575.07,680.66
		l-0.66,1.31l1.09,3.5l1.31,1.09l1.31-2.19l0.44-2.19l-1.09-1.09l-1.31-0.22L575.07,680.66z"/>
	<path class="st0" d="M718.48,541.4l1.75,1.75l-0.22,14.21l0.22,33.88l0.44,16.4l-0.87,23.17l-0.44,8.96l-0.22,8.96l1.09,3.93
		l0.22,4.81l0.22,5.03l-1.31,2.84l0.44,1.75l-1.31,3.06v2.41l1.09,1.09h1.97l2.19,1.97l0.88,3.06l-2.41,3.28l1.09,2.84v1.97
		l1.97,1.31l3.72-1.31l1.97,0.66l0.44-3.72l0.22-3.72v-3.93l1.09-1.09h1.97l1.09,1.75l-0.66,5.25l-0.44,5.25v6.56l-0.66,0.44
		l-13.99,0.22l-10.49-0.44l-15.96-0.22l-8.74,0.87l-1.09-0.87v-2.19l0.44-11.59l-1.09-3.93l-1.53-0.88l-2.84,3.06l-4.81,8.09
		l-4.59,4.15h-1.09l-4.37,3.5l-5.25,2.4l-6.78,0.88l-13.33-1.09l-7-1.53l-7-3.5l-6.78-6.78l-5.03-8.53l-1.75-3.72l-0.66-3.28
		l-1.75-3.06l-1.09-8.53l-1.53-9.84v-6.56l0.44-12.24l1.75-6.56l1.97-6.12l2.62-7.65l2.19-3.5l1.97-4.81l2.62-1.09v-1.09l5.68-5.47
		l2.19-0.44l3.28-2.19l3.93-1.31l3.28-1.31l5.25-0.44l0.44-0.44l7.21-0.87l7.65,0.87l4.81,1.31l4.37,2.84l3.93,2.4l2.19,1.53
		l2.84,4.81l2.62,2.62l1.09,4.37l2.41,4.59l-1.53,1.75v0.88l0.66,0.44l3.72-1.75l-0.44-6.34l-1.31-3.5l-0.87-3.06l-0.88-13.99
		l0.22-22.52l-1.53-2.84l-1.97-1.09h-9.84l-1.31-1.09v-16.83l5.9,0.66h12.68l4.81,0.66l3.28-1.31l10.27,1.09l2.19-1.31h8.75
		L718.48,541.4z M612.46,659.67l1.53,2.62h1.53l3.06-2.62l-0.44-0.44l-5.25-0.44L612.46,659.67z M615.08,618.79h1.53v-1.31h-1.53
		V618.79z M617.05,670.16l1.09,0.88l1.09-0.44v-1.75h-1.75L617.05,670.16z M618.58,619.45l-0.66,5.25v6.34l0.87,1.75l2.62-0.44
		l1.31-0.88v-1.75l-1.75-1.09v-1.53l2.4-0.22l0.22-1.97l-1.53-0.66l-1.53,0.88l-1.09-1.53l0.87-1.53l1.97-1.75v-1.53l-1.53-0.44
		h-0.66L618.58,619.45z M620.76,642.4l0.66,2.4l-1.53,1.09l1.09,2.18h0.66l2.19,1.09l1.53-0.44v-2.19l-2.62-1.97l0.88-1.53
		l-1.09-1.53h-0.44L620.76,642.4z M622.95,652.24l-0.22,2.4v2.62l-0.44,11.15l-1.97,4.15l0.66,1.97l1.09,0.44l1.97-1.53l-1.09-3.28
		l1.31-1.53l0.88-3.06l-0.44-2.19l1.97-1.75v-0.66l-2.41-1.09l-0.44-4.15l2.4-1.53v-2.4l-1.09-1.09h-1.09L622.95,652.24z
		 M622.73,598.68l-1.09,0.44v0.88l1.75-0.44l0.44-1.09h-0.66L622.73,598.68z M624.92,669.29l0.87,2.19v4.37l1.09-0.22l1.31-3.06
		l-0.44-2.62l-0.87-1.09h-1.53L624.92,669.29z M626.88,683.06v0.44l2.19,1.75l1.53-0.44v-1.53l-1.97-0.22H626.88z M627.32,598.02
		v1.31h0.66l1.97-1.31v-0.87h-1.09L627.32,598.02z M628.85,609.39l1.97,1.09l1.97,1.75l0.88-1.09v-2.41l-1.09-1.09h-3.72V609.39z
		 M631.47,598.9l-1.31,0.88l0.22,0.88l0.22,1.09l1.09,0.44l0.44-1.97l-0.44-0.66L631.47,598.9z M632.35,671.69v1.97l1.31,0.66
		l0.87-1.31l-1.09-1.97H633L632.35,671.69z M632.79,649.62l0.88,1.53h0.87l0.88-1.31l-1.09-2.19h-0.66L632.79,649.62z M638.91,627.1
		l-2.19,0.88v2.4l-1.31,1.31l-0.44,2.4l-0.88,1.31l0.44,1.75l1.31,0.44l1.75-0.87v-1.75l0.22-1.97v-0.87l-0.66-1.97h2.19l0.44,0.88
		h1.75l0.66-0.88l-1.09-1.09v-3.72h-1.31L638.91,627.1z M634.53,641.09l0.22,1.53l1.97,0.44l0.88-0.88l-1.75-3.5L634.53,641.09z
		 M635.85,658.14l-0.44,1.75l-0.88,1.97l0.88,1.75h1.75l-0.22-2.62v-2.41l-0.66-0.22L635.85,658.14z M636.06,614.64l0.66,1.53h2.62
		l0.66-1.53l-0.87-1.31l-1.31-0.44L636.06,614.64z M638.91,647.87l1.31,1.31l1.09-0.87l-0.66-1.53h-1.31L638.91,647.87z
		 M639.78,634.97l0.44,0.88h1.31l0.44-0.66l-1.09-1.09L639.78,634.97z M645.03,597.37v1.53l-1.31,1.09v2.62l2.19,2.62l0.66-0.66
		l0.22-7.87h-1.09L645.03,597.37z M659.68,610.27l-2.84,0.22l-4.37,2.19l-4.81,4.59l-1.31,2.84l-0.87,5.9l-1.31,4.15l0.44,8.96
		l0.22,9.62l0.88,3.93l-0.22,2.84l1.31,7.21l2.19,3.5l8.96,7l2.84-0.44l2.19,1.75h1.31l4.81-3.5l6.78-3.28l1.97-3.06l2.84-5.25
		l1.75-9.4v-4.37l0.87-5.47l-1.31-6.34l-0.22-10.49l-3.28-6.12l-2.19-1.97l-3.06-2.19l-4.37-3.28l-3.5-0.44l-1.97,0.88l-0.88-0.66
		h-0.44L659.68,610.27z M651.8,685.03l1.09,1.53l-1.09,3.06l1.31,2.19l2.4,0.66l1.09-1.75l2.19,1.31l1.53-1.09v-1.31l-1.31-0.44
		l-1.75,0.88l-1.53-3.06v-1.53l-1.97-1.97h-1.31L651.8,685.03z M657.93,681.31v3.06l1.31,0.66l2.84-1.97v-1.97l-1.09-1.09h-1.53
		L657.93,681.31z M659.89,687.65v1.09l2.84,1.75l0.88-1.09l-0.44-1.75l-0.88-0.44L659.89,687.65z M668.86,678.03l-3.5,0.87
		l-0.88,1.31l2.41,3.72h2.62v0.88h1.31V680l1.97,1.31h0.66l1.31-1.31l-0.66-1.31h-4.37l-0.44-0.44L668.86,678.03z M666.45,684.37
		l-0.44,0.66v1.09h1.75l-0.22-0.66v-0.66l-0.44-0.22L666.45,684.37z M686.34,629.5v1.09l1.97-0.22l0.22-0.87v-0.66H687L686.34,629.5
		z M686.78,565.23l0.88,1.31l0.87-0.66l-0.44-1.31h-1.31V565.23z M687.44,548.62l0.66,1.09h1.75l0.66-1.75l-0.87-0.88L687.44,548.62
		z M687.66,623.82l1.31,1.09l0.66-1.31l-0.66-1.31h-1.31V623.82z M688.75,568.29l-0.66,0.44v2.4l0.87,0.66l-0.44,1.97l1.31,1.09
		l2.19-0.88v-0.87l-2.19-0.88v-3.06l-0.66-0.44L688.75,568.29z M692.03,641.31v0.66l-3.06,3.06v3.06l1.31,1.31h1.75l1.09-1.31
		l1.97-0.66l1.31-2.84v-2.18h-2.62l0.44-1.09l1.97-0.22l0.44-1.31l-1.53-2.19h-1.53L692.03,641.31z M690.28,633.22l0.44,0.87h1.75
		l1.31-1.97v-1.97h-0.66L690.28,633.22z M694.87,679.78l-1.09,1.09v1.31l-2.19,2.41l0.44,0.87h2.62l1.31-0.44v-3.72l-0.44-0.88
		L694.87,679.78z M698.37,658.14l-2.84,1.31l-0.87,1.31v4.81l-2.62,3.28v1.09l2.62,3.06v1.31l1.53,1.31l1.53-1.97v-4.15l-1.31-1.97
		l1.97-2.19l0.22-2.84l0.44-2.62l1.75-3.5l-0.44-1.09h-1.31L698.37,658.14z M694,646.34l-1.09,1.09l-0.44-1.53l0.66-1.53l0.44,1.09
		L694,646.34z M692.9,603.49l1.75,3.06l3.28,1.97l1.09,2.62v1.97h2.41l0.44-1.31l-1.97-3.06l0.22-1.31v-1.31l-1.09-1.53h-2.84
		l-0.66-1.97l0.22-2.4h-1.53L692.9,603.49z M692.9,618.35l1.31,2.19l0.88-0.44v-2.62h-1.75L692.9,618.35z M694.65,584.47V586
		l1.09,1.09h1.53l1.09-2.19l-0.66-2.19h-2.19L694.65,584.47z M698.37,617.04l-1.53,4.15v1.09l-0.22,0.87l0.87,0.44l2.19-3.28
		l-0.44-3.06l-0.44-0.22H698.37z M697.49,568.51l-0.66,2.62l1.31,1.09l1.75-1.31h1.75l0.44-1.53v-1.09l-3.5-1.09v-2.62h-1.09V568.51
		z M699.24,586.22l-1.09,1.75l0.66,1.75l1.31-0.22l0.87-1.53l-0.87-1.53l-0.44-0.22H699.24z M701.21,659.89v1.75l-0.22,1.75
		l2.19,0.22l-0.44,4.37l-3.06,1.53l-1.31,2.4l1.09,1.75l0.44,2.62l0.22,2.62l2.84,2.62l-0.87,0.44l0.22,0.87v0.66l1.53,2.19
		l0.87-0.44l3.28-1.97v-0.88l-1.97-2.62h-1.97l-0.44-5.25l3.5-2.62v-3.28l-2.19-1.75l1.09-3.5l0.22-0.88v-0.66l-3.28-3.72v-0.66
		h-0.87L701.21,659.89z M699.02,640.65l1.09,2.41l-1.31,4.37l1.97,1.31v1.53l-1.75,2.19v0.88l1.75,1.09h3.06l1.97,2.62h1.31
		l2.62-1.97v-1.09l-2.19-1.97l-1.53-3.94l1.53-1.53v-1.53h-0.66l-1.53,0.88l-1.53-1.31v-2.18l-2.19-4.81h-1.09L699.02,640.65z
		 M703.18,576.6l-1.09,1.75v1.31l1.31,0.44l1.97-0.88l-0.22-2.4l-1.09-0.22H703.18z M705.8,620.32l-1.97,2.4v1.75l1.53,1.31
		l-0.66,1.97l1.31,1.09l1.09-1.75v-1.31l0.87-3.5l3.28,0.22v-0.66l0.22-0.88l-4.59-1.31L705.8,620.32z M707.33,609.83l-1.09,2.84
		v1.97l1.31,1.75l0.44-1.31l2.19-2.19v-1.53l-0.87-2.41h-1.31L707.33,609.83z M706.24,629.72v1.75l0.66,0.44l1.53-0.66l-0.22-1.31
		l-1.09-0.22H706.24z M711.48,582.28v2.19l-2.62-1.09l-0.66,1.53l1.09,2.62l-0.87,0.66l-0.88,1.75l1.31,2.4l-2.41,1.75v2.62
		l2.41,3.94l-0.22,1.97v1.97l-1.31-0.44l-0.44,1.31l1.09,1.75h1.31l2.62-2.19v-5.03l-0.88-3.28l1.31-2.4v-2.19l-1.31-1.31
		l-0.44-3.06l2.4-0.22l1.97-2.19l0.44-2.19l-0.88-2.19h-1.09L711.48,582.28z M708.42,663.39l-1.09,4.15l1.53,1.31l0.44,6.56
		l0.44,0.88l3.72,0.87l1.75,2.41l1.53-0.66l-0.22-3.28l-2.4-0.22l-0.88-2.4h0.22l2.19-1.53l1.09-2.62l-1.31-3.93l-1.97-0.22
		l-1.53-2.62l-1.75-0.44L708.42,663.39z M708.86,562.83l0.66,1.53l1.75,3.5h0.44l-0.44-6.12l-0.87-1.53h-1.53V562.83z
		 M710.83,547.96l-0.66,1.31l0.44,1.53h1.75v-2.62l-0.88-0.22H710.83z M710.17,639.78h0.88v-3.93h-0.88V639.78z M710.61,656.39
		l1.09,1.09l0.66-0.66v-1.09h-1.75V656.39z M711.92,668.85h-1.31v-0.87l0.44-0.44h0.88V668.85z M713.01,649.62l-1.53,0.87v1.75
		l1.31,2.62h0.66l1.53-1.97v-2.41l-1.09-1.09h-0.44L713.01,649.62z M714.11,657.05v1.53l1.31,1.53l2.19-1.31v-1.31l-1.75-0.87h-1.31
		L714.11,657.05z M714.98,660.76l-0.66,1.31l0.22,0.88l0.22,0.66l1.09,0.44v-2.62l-0.44-0.22L714.98,660.76z M718.04,680.66
		l-0.66,1.31l1.09,3.5l1.31,1.09l1.31-2.19l0.44-2.19l-1.09-1.09l-1.31-0.22L718.04,680.66z"/>
	<path class="st0" d="M869.1,589.06l0.66,1.09v15.96l-1.31,0.66h-7.65l-4.81-0.88l-2.19,4.59l-1.75,2.84l-0.44,2.62l0.87,1.97
		l-2.84,7.43l-1.53,3.06l-2.41,5.68l-4.37,8.75v0.87l-4.15,9.18l-5.47,10.05l-0.66,2.84l-2.62,5.68l-6.12,12.68l-3.72,8.53
		l-1.97,2.62l-7.87,15.96l-1.75,4.81l-5.03,6.34l-2.4,3.28l-6.12,5.9l-1.75,3.94l-2.41,2.4l-4.59,1.31h-0.66l-8.31,4.15l-5.03,0.66
		l-3.06-0.66l-3.5,0.44l-4.37-1.31l-7.87-1.97l-4.37-2.62l-4.81-4.15l-5.25-7.21l-1.31-3.06l-0.66-11.81l1.97-6.34l4.59-4.59
		l3.28-2.84l4.81-1.53h7l5.9,1.53l4.59,3.06l1.97,3.28l2.19,7.21l-1.75,6.56l-2.19,3.28l-1.53,0.88h-1.75l-2.4,2.62l-3.06,0.66
		l-2.62-2.62l0.44-1.75l-1.31-1.31l-1.09,1.09h-2.4l-1.97,3.5h-1.31l-1.09,0.66l0.44,3.28l3.72,1.75l5.25,0.44l1.75-1.31h1.97
		l3.06,3.06l0.66,2.4l-1.09,1.53v0.88h0.88l2.84-1.97l3.28-2.4v-1.09l-3.28-1.31v-1.75l3.28-1.53l4.59-1.53l1.53-1.31l1.97-1.53
		h3.28l2.84-3.5v-2.19l0.87-2.19l4.15-1.97l1.53,1.97l-0.66,2.84l0.22,1.09v1.31l-1.75,1.75l-1.09-1.31l-2.4-0.44l-1.31,3.28
		l-5.9,5.47l-3.06,0.44l-3.06,1.75v1.31l2.84,1.09l1.31,1.31l1.53-0.87l1.97-4.15h1.53l1.31,0.22l1.97,1.53h2.62l0.44-0.87h1.97
		l4.15-3.93v-1.09l2.19-3.5l-0.44-2.4l-1.31-1.09v-1.09l1.75-0.44l1.31-3.5v-0.87l-0.88-2.41L795,711.7h-1.09l-2.62-1.53l-1.75,1.53
		l-1.53-0.22l-1.31-2.4l3.28-3.28l3.06-5.47v-1.75l-3.06-3.72l-1.75-2.84l-3.28-8.31l-2.84-5.25l-4.37-10.06l-5.9-13.34l-3.93-7.43
		l-1.53-3.06l-2.4-6.12l-3.28-6.56l-3.06-6.56l-4.59-10.27l-2.4-5.9l-2.84-0.22l-4.15-2.19l-1.31,0.66l-3.06,0.44l-1.75-0.88
		l-0.44-17.49l0.66-0.88h65.58l1.53,0.66l0.66,2.19l-2.19,7.21l1.97,5.68l0.44,3.28l-4.15,0.44l-1.53-2.19h-2.84l-1.75-1.09
		l1.97-2.62v-1.09l-0.22-1.09l-2.84-1.75v-1.97l-2.19-2.19h-1.75v1.31l1.75,3.06l-0.44,0.88h-2.19v1.09l1.75,5.03v1.75l-1.53,3.28
		l1.31,2.4l1.53,4.59v2.4l2.4,4.59l2.41,5.25v1.31l2.62,2.62l1.75,4.59v3.28l1.53,5.25l0.88,1.31l1.97,0.66l2.19,5.9l0.22,2.41
		l0.22,2.19l1.09,2.4l1.97,1.31l1.31-0.66l1.53-2.62l0.44-2.4l0.22-2.19l0.88-4.81l2.84-6.56l0.88-0.87v-1.75l0.87-3.06l1.97-1.09
		l5.47-13.12v-2.62l2.19-3.28l1.53-5.68l1.97-3.28v-1.53l-0.88-1.31l-2.62,2.84h-0.66l-2.84-1.31l-2.41,1.09l-1.09-0.66l0.66-1.53
		l2.62,0.22l3.72-2.19h2.62l1.75-1.09l1.09,1.09l0.87,2.84l2.62,1.53l0.22,1.31l-3.93,1.75v1.53l1.53,1.75h1.09l2.19,3.5h0.88v-1.09
		l0.44-3.06l0.22-4.81l1.97-1.31v-1.53l-2.62-0.66v-1.09l0.44-1.53h1.75l1.53-2.4l1.97-1.53v-1.09l-1.31-1.09v-2.62l-1.97-1.31
		h-3.72l-1.97,1.09l-4.81,0.22h-12.46l-0.44,2.62l1.75,1.75l1.97,0.66v1.75l-1.75,1.53v1.97l-2.84,1.75l-2.4-0.22v-1.31l-0.22-1.53
		l1.31-6.78v-2.19l-1.53-3.93l-0.22-1.97l1.53-0.66l26.23,0.44h11.37l1.31-0.88l3.93,0.44L869.1,589.06z M750.4,707.77h-1.97
		l-3.72,0.44h-1.53l-0.66,1.31l0.88,1.97l0.66,1.75l0.66,2.62l0.66,1.53h-2.4l-2.41,2.41v0.87l1.31,1.31l1.31,2.84h3.72v-1.75
		l1.53-0.66l1.53-1.75v-4.59l1.53-2.62l-1.97-1.75v-1.31l1.75-1.97l1.09,0.44l0.22,0.88v1.09l1.31,0.44l1.31-1.09l3.93,3.93
		l1.75-1.09l0.87,1.09l0.44,1.53h1.75l0.66-2.19l-3.28-3.5v-0.66l-1.97-4.37h-7.87L750.4,707.77z M740.78,598.9v1.31h1.31
		l-0.22-1.09h-0.66L740.78,598.9z M742.09,601.74v1.31l1.53-0.44v-1.09l-0.87-0.44L742.09,601.74z M757.61,598.24l-1.53,1.31
		l-2.84-2.19l-1.31,1.31h-1.09l-2.19-1.31l-2.19,1.31l-0.44,1.31l1.75,3.28l3.28,3.72h1.53l1.31-1.97l3.93,1.09l-0.44-1.75v-0.66
		l-1.75,0.44l-0.44-0.88l1.31-2.19h1.53l0.88,1.97l2.84,1.53l-1.31,0.44v1.75h3.28l0.66-0.88l1.75-0.66l2.62,1.97h0.66l1.75-2.84
		h2.19v-2.62l0.66-2.4l-1.09-0.66l-4.59,0.44l-1.75,1.53l-2.19-2.84l-3.28,1.97h-1.31l-0.66-1.31v-1.75l-0.88-0.44L757.61,598.24z
		 M753.68,601.08l0.22,0.87v1.09l-1.31,1.09l-2.19-0.66v-1.53l1.09-1.09l1.09,0.22H753.68z M760.46,608.95v0.88l1.53,1.09
		l-0.22-0.66l-0.22-0.88l-0.44-0.22L760.46,608.95z M763.52,626.44l0.88-0.44v-1.31h-0.88V626.44z M770.07,612.23l-0.44,1.09
		l0.44,0.66h0.66v-1.31l-0.22-0.22L770.07,612.23z M772.48,629.94l-1.31,1.31l0.44,1.75l1.09,0.87l1.31-0.44v-2.62l-0.66-0.44
		L772.48,629.94z M775.98,635.19l-0.44,1.31l0.44,1.31l1.97-0.22v-2.18l-1.09-0.22H775.98z M777.29,643.49l-0.44,0.66l0.44,0.66
		h1.75l-0.44-1.09h-0.66L777.29,643.49z M780.13,629.5l0.87,1.53l1.53,0.22l0.44-1.31l-1.09-2.62h-1.09L780.13,629.5z
		 M780.79,634.31v3.06h1.97l-1.09-2.84l-0.44-0.22H780.79z M783.41,636.72v0.66h1.31v-1.31h-0.88L783.41,636.72z M789.09,632.13
		l-1.09,2.19l1.97,1.97v0.66h-1.75l-1.31,2.19l-2.62,0.87v1.31l2.62,2.62v1.31l-1.09,0.66l-0.87-1.09h-0.66v1.53l1.75,3.06
		l2.41-0.44l0.66-3.5l-0.87-2.19v-0.87l-0.22-0.88l0.22-1.53h1.31l2.41,1.75l3.72,2.84l-1.09,1.09l-2.62-0.87l-1.09,0.87l-0.22,2.62
		l-0.22,2.4l-0.22,1.75l1.97,0.22l1.09,0.44l1.97-1.31l3.06,0.66l1.75,2.19l1.09-0.87l-1.09-3.5l-2.4-1.97l-3.5,0.44l-1.31-0.88
		l1.09-0.87l2.62,1.09l2.19-1.53l0.44-1.97l-1.31-5.25L795,636.5l-3.5-1.31l-0.87-2.84l-0.88-0.22H789.09z M784.94,594.96l0.66,1.75
		l1.53-0.22l0.22-1.53l-1.09-0.87h-0.66L784.94,594.96z M786.47,603.93v1.53l0.88,0.66l1.31-1.31l-1.09-1.53h-0.66L786.47,603.93z
		 M790.41,660.33h1.31v-1.75h-1.31V660.33z M794.34,705.36l-0.66,2.41l2.19,2.19l3.93-1.31v-4.37l0.66-0.88l-1.31-1.97h-0.66
		L794.34,705.36z M795.43,695.74l0.66,0.87h1.31l0.87-1.53v-0.66h-1.09L795.43,695.74z M798.93,658.58l-2.41,1.75v2.62h0.44
		l2.62-2.84v-1.09l-0.44-0.22L798.93,658.58z M798.71,599.55l1.09,0.66l1.09-0.87l-0.88-1.31h-0.66L798.71,599.55z M809.42,673.01
		l-1.53,1.53v1.53l0.87,1.75h1.31l1.53-2.19l-0.22-1.09l-0.22-1.31l-0.88-0.22H809.42z M809.21,692.9l1.09,1.09h1.09v-1.09
		l-0.44-1.53h-1.09L809.21,692.9z M827.13,644.81l0.87,2.19l-1.97,1.31l-0.66,2.19l0.66,0.87l3.06-2.19l-0.22-2.19l1.75-1.09
		l-1.09-2.41h-1.75L827.13,644.81z M831.28,636.5v3.06l1.31,0.66l2.19-1.53v-1.09l-2.4-2.4h-0.66L831.28,636.5z M850.52,595.18
		l-0.44,3.72l1.53,1.75l6.56,1.97l1.75,2.41h0.66l0.87-1.09l-1.09-1.75l0.87-1.53l2.19,0.66l0.44-2.84l2.19-1.09l-0.44-1.31h-6.12
		l-1.31-0.88l-3.94-1.09h-2.62L850.52,595.18z"/>
</g>
</svg>
